<svg width="222" height="351" viewBox="0 0 222 351" fill="none" xmlns="http://www.w3.org/2000/svg">
<g clip-path="url(#clip0_420_138)">
<rect x="222.004" y="0.60791" width="350" height="222" rx="16" transform="rotate(90 222.004 0.60791)" fill="#00252E"/>
<path opacity="0.53" d="M221.889 108.002L222.004 329.566C222.004 331.487 221.743 333.357 221.251 335.122L122.712 236.834C119.763 233.9 117.86 230.318 117.054 226.548C115.527 219.802 117.41 212.419 122.702 207.156L221.889 108.002Z" fill="url(#paint0_linear_420_138)"/>
<path opacity="0.53" d="M78.3142 255.587L174.5 351.524L19.1616 351.608C7.5842 351.618 -1.80742 342.241 -1.81788 330.691L-1.82834 305.994L48.5915 255.597C56.7804 247.389 70.1044 247.379 78.3142 255.587Z" fill="url(#paint1_linear_420_138)"/>
<path opacity="0.53" d="M0.0879789 169.217L30.3022 199.344C38.5225 207.531 38.533 220.836 30.3232 229.023L0.140273 259.192L0.0879789 169.217Z" fill="url(#paint2_linear_420_138)"/>
<path opacity="0.53" d="M19.9628 -1.2979L180.635 -1.38143C180.855 4.24723 178.826 9.95939 174.506 14.2618L46.9977 141.716C38.7984 149.924 25.4639 149.934 17.2541 141.737L-0.943498 123.587L-0.995793 19.6503C-0.995793 15.5254 0.206922 11.6512 2.2986 8.41391C6.01132 2.56595 12.5269 -1.2979 19.9628 -1.2979Z" fill="url(#paint3_linear_420_138)"/>
<path d="M29.5017 29.3039L29.5017 32.8048C29.5017 33.8995 29.8062 34.7232 30.8829 35.1892L46.2062 41.9092L46.2062 37.1402C46.2062 37.1402 44.1508 36.349 43.7158 36.1864L43.7158 30.3769C44.2922 30.236 46.2062 29.8241 46.2062 29.8241L46.2062 25.6079L29.5017 29.3039ZM40.2901 34.8858C39.333 34.5172 35.6028 33.1082 35.6028 33.1082C35.6028 33.1082 34.624 32.718 34.0259 32.4904L35.4614 32.187C35.4614 32.187 39.4418 31.309 40.2901 31.1356L40.2901 34.8858Z" fill="white"/>
<path d="M34.1455 47.9571C34.9176 47.9679 35.4397 46.9816 36.2118 45.3992C37.4081 42.7871 38.8436 41.5731 40.7577 41.6056C44.2269 41.6273 46.4673 44.7272 46.4673 49.4853C46.4455 51.523 46.0322 53.4739 45.5755 54.5361L41.8344 53.8967L42.0954 53.3222C42.7153 51.8373 42.9763 50.8618 42.9763 49.0518C42.9763 47.7511 42.4651 46.353 41.345 46.3313C40.6055 46.3204 40.0834 46.9274 39.2678 48.6833C38.4739 50.4175 37.1362 52.6936 34.7436 52.6611C31.5028 52.6394 29.219 49.4745 29.219 44.9981C29.219 43.2423 29.5887 41.8224 29.9259 40.9337L33.5365 41.5514L33.3516 41.9633C33.0145 42.8087 32.6991 43.8818 32.7099 45.3667C32.6991 47.1334 33.4495 47.9571 34.1455 47.9571Z" fill="white"/>
<path d="M29.5126 54.5578L46.2063 57.3867L46.2063 61.9172L42.9654 61.3645L37.6365 60.4649L29.5235 59.0992L29.5126 54.5578Z" fill="white"/>
<path d="M38.115 70.8375C34.2542 72.3549 31.046 75.975 29.7192 81.4485L29.3821 81.3943L29.3821 74.36C29.4256 73.4062 29.7192 72.6367 30.7415 72.3765L38.115 70.8375Z" fill="white"/>
<path d="M29.5344 60.9309L46.1954 68.0736L46.1954 72.8642L32.2749 76.9287C34.1564 74.0131 37.1362 71.5311 39.2025 70.6532L40.9317 70.1762L29.5344 65.7324L29.5344 60.9309Z" fill="white"/>
<path d="M28.1477 291.459L47.5059 291.448C49.7897 291.448 51.6602 293.313 51.6602 295.578L51.682 322.219C51.682 324.506 49.8114 326.37 47.5385 326.37L28.1804 326.392C25.8857 326.392 24.026 324.528 24.026 322.252L24.0042 295.6C24.0042 293.323 25.853 291.459 28.1477 291.459Z" fill="#F6C859"/>
<path d="M47.9844 312.92C47.9844 313.071 47.9083 313.212 47.7669 313.277C47.5711 313.375 47.321 313.299 47.2231 313.104C46.9186 312.518 46.3531 311.727 45.3852 311.261C44.1454 310.676 42.7969 310.828 42.6772 311.077C42.6446 311.142 42.7751 311.38 42.8512 311.532C43.047 311.912 43.3189 312.443 43.1014 313.05C42.8947 313.646 42.3618 313.938 42.1008 314.079C40.4152 315.001 36.0433 315.282 33.8682 314.318C33.1504 313.993 32.7154 313.559 32.5849 313.017C32.4544 312.464 32.6828 312.009 32.8785 311.651C33.0308 311.359 33.0961 311.207 33.0417 311.109C32.8133 310.73 31.4212 310.741 30.3228 311.272C29.3441 311.738 28.7785 312.529 28.4849 313.115C28.387 313.31 28.1369 313.396 27.9411 313.288C27.7454 313.19 27.6584 312.941 27.7671 312.746C28.126 312.052 28.8003 311.099 29.9857 310.546C31.1494 309.993 33.1613 309.733 33.7486 310.698C34.0422 311.185 33.8029 311.651 33.6181 312.02C33.4767 312.302 33.3353 312.573 33.4006 312.833C33.4876 313.19 33.89 313.429 34.2162 313.581C36.1194 314.426 40.252 314.177 41.7311 313.375C41.9812 313.234 42.2531 313.071 42.351 312.789C42.4489 312.518 42.3292 312.258 42.1443 311.901C41.9595 311.543 41.7637 311.153 41.9595 310.73C42.4053 309.82 44.352 309.885 45.7441 310.535C46.9295 311.099 47.6038 312.042 47.9627 312.735C47.9735 312.8 47.9844 312.865 47.9844 312.92Z" fill="#7D662D"/>
<path d="M34.5968 314.144L34.5968 321.417C34.5968 321.645 34.4119 321.818 34.1944 321.818C33.9769 321.818 33.7921 321.645 33.7921 321.428L33.7921 314.155C33.7921 313.928 33.9769 313.754 34.1944 313.754C34.4119 313.743 34.5968 313.917 34.5968 314.144Z" fill="#7D662D"/>
<path d="M41.9051 314.144L41.9051 321.417C41.9051 321.645 41.7202 321.818 41.5027 321.818C41.2743 321.818 41.1003 321.634 41.1003 321.417L41.1003 314.144C41.1003 313.917 41.2852 313.743 41.5027 313.743C41.7202 313.733 41.9051 313.917 41.9051 314.144Z" fill="#7D662D"/>
<path d="M47.9735 304.433C47.9735 304.498 47.9626 304.563 47.93 304.617C47.5711 305.311 46.8968 306.265 45.7114 306.818C44.3194 307.479 42.3727 307.533 41.9268 306.633C41.7202 306.211 41.9268 305.81 42.1008 305.463C42.2857 305.094 42.4053 304.834 42.3075 304.574C42.1987 304.271 41.8833 304.097 41.6876 303.989C40.2085 303.187 36.065 302.948 34.1727 303.794C33.8464 303.945 33.4332 304.184 33.357 304.541C33.3027 304.758 33.0852 304.899 32.8677 304.845C32.6501 304.791 32.5196 304.574 32.5631 304.357C32.6936 303.815 33.1178 303.382 33.8356 303.057C36.0106 302.081 40.3934 302.363 42.0682 303.284C42.3292 303.425 42.8621 303.718 43.0687 304.314C43.2862 304.921 43.0144 305.452 42.8186 305.831C42.7425 305.983 42.6228 306.221 42.6446 306.286C42.7642 306.525 44.1128 306.688 45.3525 306.091C46.3313 305.625 46.8968 304.834 47.1905 304.249C47.2884 304.054 47.5385 303.967 47.7343 304.075C47.8974 304.14 47.9735 304.281 47.9735 304.433Z" fill="#7D662D"/>
<path d="M32.9655 306.059C32.9655 306.232 32.8568 306.384 32.6937 306.438C30.0836 307.305 28.0716 305.278 27.7454 304.628C27.6366 304.433 27.7236 304.184 27.9194 304.086C28.1151 303.989 28.3653 304.064 28.4631 304.26C28.6154 304.552 30.2141 306.416 32.4326 305.679C32.6502 305.604 32.8785 305.723 32.9438 305.94C32.9655 305.972 32.9655 306.015 32.9655 306.059Z" fill="#7D662D"/>
<path d="M34.586 295.946L34.586 303.219C34.586 303.447 34.4011 303.62 34.1836 303.62C33.9661 303.62 33.7812 303.436 33.7812 303.219L33.7812 295.946C33.7812 295.719 33.9661 295.545 34.1836 295.545C34.4011 295.545 34.586 295.73 34.586 295.946Z" fill="#7D662D"/>
<path d="M41.8833 295.946L41.8833 303.219C41.8833 303.447 41.6984 303.62 41.4809 303.62C41.2526 303.62 41.0786 303.436 41.0786 303.219L41.0786 295.946C41.0786 295.719 41.2634 295.545 41.4809 295.545C41.7093 295.545 41.8833 295.719 41.8833 295.946Z" fill="#7D662D"/>
<path d="M103.933 319.319L105.7 319.319L105.596 321.836L107.614 320.374L108.555 321.951L106.286 323.194L108.555 324.436L107.614 325.982L105.596 324.551L105.711 327.037L103.943 327.037L104.079 324.551L102.029 325.992L101.088 324.447L103.357 323.204L101.088 321.961L102.029 320.385L104.079 321.847L103.933 319.319Z" fill="white"/>
<path d="M103.922 306.38L105.69 306.38L105.585 308.897L107.603 307.435L108.545 309.012L106.275 310.255L108.545 311.497L107.603 313.043L105.585 311.612L105.7 314.098L103.933 314.098L104.069 311.612L102.019 313.053L101.077 311.508L103.347 310.265L101.077 309.022L102.019 307.446L104.069 308.908L103.922 306.38Z" fill="white"/>
<path d="M103.922 293.432L105.69 293.432L105.585 295.938L107.604 294.476L108.545 296.053L106.275 297.295L108.545 298.538L107.604 300.084L105.585 298.653L105.7 301.138L103.933 301.138L104.069 298.653L102.019 300.094L101.077 298.549L103.347 297.306L101.077 296.063L102.019 294.486L104.069 295.948L103.922 293.432Z" fill="white"/>
<path d="M103.912 280.493L105.679 280.493L105.575 283.01L107.593 281.548L108.534 283.125L106.265 284.367L108.534 285.61L107.593 287.155L105.575 285.725L105.69 288.21L103.922 288.21L104.058 285.725L102.008 287.166L101.067 285.62L103.337 284.378L101.067 283.135L102.008 281.558L104.058 283.02L103.912 280.493Z" fill="white"/>
<path d="M103.901 258.574L105.669 258.574L105.564 261.091L107.583 259.629L108.524 261.205L106.254 262.448L108.524 263.691L107.583 265.236L105.564 263.806L105.679 266.291L103.912 266.291L104.048 263.806L101.998 265.247L101.057 263.701L103.326 262.459L101.057 261.216L101.998 259.639L104.048 261.101L103.901 258.574Z" fill="white"/>
<path d="M103.891 245.625L105.658 245.625L105.554 248.141L107.572 246.679L108.513 248.256L106.244 249.499L108.513 250.742L107.572 252.287L105.554 250.856L105.669 253.342L103.901 253.342L104.037 250.856L101.987 252.298L101.046 250.752L103.316 249.509L101.046 248.267L101.987 246.69L104.037 248.152L103.891 245.625Z" fill="white"/>
<path d="M103.891 232.686L105.658 232.686L105.554 235.203L107.572 233.741L108.513 235.318L106.244 236.561L108.513 237.803L107.572 239.349L105.554 237.918L105.669 240.404L103.901 240.404L104.037 237.918L101.987 239.359L101.046 237.814L103.316 236.571L101.046 235.328L101.987 233.752L104.037 235.214L103.891 232.686Z" fill="white"/>
<path d="M103.88 219.737L105.648 219.737L105.543 222.243L107.562 220.781L108.503 222.358L106.233 223.601L108.503 224.843L107.562 226.389L105.543 224.958L105.658 227.444L103.891 227.444L104.027 224.958L101.977 226.399L101.036 224.854L103.305 223.611L101.036 222.368L101.977 220.792L104.027 222.254L103.88 219.737Z" fill="white"/>
<path d="M103.87 197.828L105.637 197.828L105.533 200.345L107.551 198.883L108.492 200.46L106.223 201.702L108.492 202.945L107.551 204.491L105.533 203.06L105.648 205.545L103.88 205.545L104.016 203.06L101.966 204.501L101.025 202.956L103.295 201.713L101.025 200.47L101.966 198.893L104.016 200.355L103.87 197.828Z" fill="white"/>
<path d="M103.859 184.879L105.627 184.879L105.522 187.396L107.541 185.934L108.482 187.511L106.213 188.753L108.482 189.996L107.541 191.541L105.522 190.111L105.637 192.596L103.87 192.596L104.006 190.111L101.956 191.552L101.015 190.006L103.284 188.764L101.015 187.521L101.956 185.944L104.006 187.406L103.859 184.879Z" fill="white"/>
<path d="M103.849 171.93L105.616 171.93L105.512 174.447L107.53 172.985L108.472 174.562L106.202 175.804L108.472 177.047L107.53 178.592L105.512 177.162L105.627 179.647L103.859 179.647L103.995 177.162L101.945 178.603L101.004 177.057L103.274 175.815L101.004 174.572L101.945 172.995L103.995 174.457L103.849 171.93Z" fill="white"/>
<path d="M103.849 158.992L105.616 158.992L105.512 161.498L107.53 160.036L108.472 161.613L106.202 162.856L108.472 164.098L107.53 165.644L105.512 164.213L105.627 166.698L103.859 166.698L103.995 164.213L101.945 165.654L101.004 164.109L103.274 162.866L101.004 161.623L101.945 160.046L103.995 161.508L103.849 158.992Z" fill="white"/>
<path d="M120.697 145.374L118.595 145.374L111.63 138.566C109.8 136.749 108.241 135.83 106.934 135.83C105.846 135.83 104.999 136.164 104.393 136.822C103.786 137.48 103.483 138.294 103.483 139.255C103.483 141.082 104.351 142.398 106.087 143.223L104.822 145.374C103.567 144.769 102.615 143.923 101.977 142.847C101.328 141.772 101.004 140.581 101.004 139.276C101.004 137.657 101.538 136.247 102.604 135.057C103.671 133.856 105.114 133.261 106.913 133.261C108.869 133.261 111.002 134.409 113.303 136.707L118.229 141.636L118.229 132.906L120.718 132.906L120.697 145.374Z" fill="white"/>
<path d="M109.267 121.314C109.538 119.842 110.176 118.63 111.17 117.69C112.164 116.75 113.429 116.281 114.956 116.281C116.838 116.281 118.324 116.928 119.411 118.212C120.499 119.497 121.043 121.063 121.043 122.901C121.043 124.374 120.708 125.679 120.039 126.817C119.369 127.956 118.397 128.77 117.121 129.25L115.845 127.099C117.633 126.525 118.522 125.126 118.522 122.901C118.522 121.711 118.208 120.729 117.581 119.977C116.953 119.225 116.075 118.849 114.956 118.849C113.837 118.849 112.948 119.225 112.32 119.977C111.682 120.729 111.369 121.711 111.369 122.901L111.369 123.559L109.789 124.583L103.734 120.113L103.734 128.697L101.329 128.697L101.318 117.106L103.577 117.116L109.267 121.314Z" fill="white"/>
<path d="M114.59 97.212L116.995 97.212L116.995 99.5616L120.677 99.5616L120.677 102.131L116.995 102.131L116.995 111.989L114.59 111.989L101.318 105.065L101.318 102.308L114.59 109.232L114.59 102.141L109.12 102.141L109.12 99.5721L114.59 99.5721L114.59 97.212Z" fill="white"/>
<path d="M108.869 87.1244C108.869 85.2969 109.403 83.7618 110.48 82.4983C111.557 81.2347 113.042 80.6081 114.945 80.6081C116.828 80.6081 118.313 81.2556 119.401 82.54C120.488 83.8245 121.032 85.3909 121.032 87.2288C121.032 88.7013 120.677 90.0171 119.965 91.1762C119.254 92.3354 118.229 93.1499 116.88 93.6094L115.636 91.4268C116.577 91.1658 117.288 90.675 117.78 89.9335C118.271 89.1921 118.512 88.294 118.512 87.2288C118.512 86.0175 118.198 85.0254 117.571 84.2735C116.943 83.5217 116.065 83.1457 114.945 83.1457C113.826 83.1457 112.937 83.5216 112.31 84.284C111.672 85.0358 111.358 86.007 111.358 87.1871L111.358 92.6487L101.318 91.9594L101.308 81.36L103.713 81.36L103.713 89.6098L108.859 89.944L108.869 87.1244Z" fill="white"/>
<path d="M194.004 78.3452L183 78.3452L183 78.3804L185.417 81.7378L183.747 81.7378L181.322 78.3628L181.322 76.8159L194.004 76.8159L194.004 78.3452ZM184.978 73.6782C182.763 73.6782 181.111 71.8853 181.111 69.4946C181.111 67.2271 182.649 65.4429 184.591 65.4429C186.006 65.4429 187.061 66.0845 189.249 68.2026L192.563 71.4106L192.598 71.4106L192.598 65.2319L194.004 65.2319L194.004 73.5991L192.914 73.5991L188.212 69.1343C186.419 67.4292 185.743 67.0249 184.688 67.0249C183.466 67.0249 182.491 68.1411 182.491 69.5386C182.491 71.0239 183.563 72.1489 184.978 72.1489L184.987 72.1489L184.987 73.6782L184.978 73.6782ZM196.702 63.1226L196.702 64.4321L181.322 59.9409L181.322 58.6313L196.702 63.1226ZM184.978 57.6821C182.763 57.6821 181.111 55.8892 181.111 53.4985C181.111 51.231 182.649 49.4468 184.591 49.4468C186.006 49.4468 187.061 50.0884 189.249 52.2065L192.563 55.4146L192.598 55.4146L192.598 49.2358L194.004 49.2358L194.004 57.603L192.914 57.603L188.212 53.1382C186.419 51.4331 185.743 51.0288 184.688 51.0288C183.466 51.0288 182.491 52.145 182.491 53.5425C182.491 55.0278 183.563 56.1528 184.978 56.1528L184.987 56.1528L184.987 57.6821L184.978 57.6821ZM194.004 41.8179L191.368 41.8179L191.368 48.1899L189.935 48.1899C187.931 47.1089 185.619 45.6235 181.322 42.6265L181.322 40.2886L189.979 40.2886L189.979 38.4956L191.368 38.4956L191.368 40.2886L194.004 40.2886L194.004 41.8179ZM189.944 46.6255L189.979 46.6255L189.979 41.8179L182.64 41.8179L182.64 41.8442C186.068 44.2437 188.186 45.6235 189.944 46.6255Z" fill="white"/>
<path d="M165.055 76.5493L166.004 76.5493L166.004 81.7876L157.549 81.7876L157.549 76.5493L158.498 76.5493L158.498 80.7329L161.211 80.7329L161.211 76.7661L162.149 76.7661L162.149 80.7329L165.055 80.7329L165.055 76.5493ZM163.684 73.1567L163.684 73.1802L166.004 74.6509L166.004 75.7817L162.957 73.7075L159.91 75.7466L159.91 74.6099L162.196 73.145L162.196 73.1216L159.91 71.6743L159.91 70.5376L162.916 72.5942L166.004 70.5669L166.004 71.6978L163.684 73.1567ZM166.004 69.6235L159.91 69.6235L159.91 68.604L166.004 68.604L166.004 69.6235ZM158.885 69.1138C158.885 69.4595 158.598 69.7466 158.252 69.7466C157.901 69.7466 157.619 69.4595 157.619 69.1138C157.619 68.7622 157.901 68.4751 158.252 68.4751C158.598 68.4751 158.885 68.7622 158.885 69.1138ZM159.805 64.2681C159.805 62.7153 161.047 61.6606 162.957 61.6606C164.868 61.6606 166.11 62.7095 166.11 64.2446C166.11 65.1177 165.682 65.8208 165.014 66.1841L165.014 66.2075L168.037 66.2075L168.037 67.2271L159.91 67.2271L159.91 66.2603L160.942 66.2603L160.942 66.2368C160.256 65.8618 159.805 65.1528 159.805 64.2681ZM165.213 64.4673C165.213 63.3833 164.34 62.7036 162.957 62.7036C161.58 62.7036 160.702 63.3833 160.702 64.4673C160.702 65.5103 161.604 66.2134 162.957 66.2134C164.317 66.2134 165.213 65.5103 165.213 64.4673ZM166.004 60.6294L159.91 60.6294L159.91 59.6685L160.907 59.6685L160.907 59.645C160.233 59.4458 159.805 58.8833 159.805 58.1685C159.805 57.9927 159.834 57.8403 159.846 57.7583L160.836 57.7583C160.807 57.8403 160.778 58.0571 160.778 58.3032C160.778 59.0942 161.346 59.6099 162.207 59.6099L166.004 59.6099L166.004 60.6294ZM168.284 56.4224C168.284 56.5454 168.272 56.7505 168.248 56.8618L167.393 56.8618C167.416 56.7505 167.422 56.5923 167.422 56.4634C167.422 55.895 167.147 55.5786 166.438 55.3442L166.01 55.2036L159.91 57.4536L159.91 56.3638L164.985 54.6763L164.985 54.6587L159.91 52.9712L159.91 51.8989L166.432 54.2954C167.856 54.8169 168.284 55.3208 168.284 56.4224ZM157.549 48.4712L157.549 45.6294C157.549 43.1216 159.114 41.6392 161.774 41.6392C164.44 41.6392 166.004 43.1157 166.004 45.6294L166.004 48.4712L157.549 48.4712ZM158.498 47.4165L165.055 47.4165L165.055 45.6997C165.055 43.7837 163.883 42.7173 161.785 42.7173C159.67 42.7173 158.498 43.7778 158.498 45.6997L158.498 47.4165ZM165.243 38.4751C165.243 37.5142 164.569 36.7759 163.69 36.7759L163.192 36.7759L163.291 38.4048C163.344 39.2251 163.707 39.6938 164.282 39.6938C164.862 39.6938 165.243 39.2075 165.243 38.4751ZM166.11 38.7036C166.11 39.9165 165.377 40.731 164.282 40.731C163.239 40.731 162.582 39.9282 162.5 38.522L162.401 36.7759L161.891 36.7759C161.147 36.7759 160.702 37.2681 160.702 38.1118C160.702 38.897 161.071 39.3892 161.668 39.5181L161.668 40.5024C160.614 40.4321 159.805 39.5298 159.805 38.0884C159.805 36.6587 160.578 35.7563 161.791 35.7563L166.004 35.7563L166.004 36.7231L164.955 36.7231L164.955 36.7466C165.653 37.1099 166.11 37.8833 166.11 38.7036ZM158.44 34.1333L158.44 33.1138L159.91 33.1138L159.91 31.9302L160.748 31.9302L160.748 33.1138L164.369 33.1138C164.926 33.1138 165.178 32.8794 165.178 32.3579C165.178 32.2407 165.16 32.0063 165.149 31.936L166.004 31.936C166.034 32.0591 166.051 32.3403 166.051 32.5806C166.051 33.6997 165.594 34.1333 164.422 34.1333L160.748 34.1333L160.748 35.0415L159.91 35.0415L159.91 34.1333L158.44 34.1333ZM160.69 28.5728C160.69 29.5278 161.422 30.1958 162.436 30.2603L162.436 26.9497C161.416 26.9731 160.69 27.6118 160.69 28.5728ZM164.258 26.9731L164.258 25.9712C165.325 26.147 166.11 27.1782 166.11 28.5083C166.11 30.2544 164.897 31.3149 162.981 31.3149C161.088 31.3149 159.805 30.2368 159.805 28.5552C159.805 26.9087 161 25.895 162.846 25.895L163.233 25.895L163.233 30.2661L163.291 30.2661C164.457 30.2661 165.225 29.5806 165.225 28.4849C165.225 27.7114 164.832 27.1431 164.258 26.9731Z" fill="white"/>
<path d="M192.088 317.467L194.004 317.467L194.004 325.492L181.322 325.492L181.322 323.224L192.088 323.224L192.088 317.467ZM192.897 308.828C193.758 309.642 194.189 310.738 194.189 312.115C194.189 313.492 193.758 314.587 192.897 315.402C192.03 316.216 190.846 316.624 189.346 316.624C187.852 316.624 186.671 316.213 185.804 315.393C184.931 314.573 184.494 313.48 184.494 312.115C184.494 310.744 184.931 309.651 185.804 308.836C186.671 308.016 187.852 307.606 189.346 307.606C190.846 307.606 192.03 308.013 192.897 308.828ZM191.64 313.785C192.185 313.375 192.457 312.818 192.457 312.115C192.457 311.412 192.185 310.855 191.64 310.445C191.095 310.035 190.33 309.83 189.346 309.83C188.367 309.83 187.606 310.035 187.061 310.445C186.51 310.855 186.235 311.412 186.235 312.115C186.235 312.812 186.51 313.369 187.061 313.785C187.606 314.195 188.367 314.4 189.346 314.4C190.33 314.4 191.095 314.195 191.64 313.785ZM194.004 306.138L181.322 306.138L181.322 303.95L194.004 303.95L194.004 306.138ZM192.501 298.685C192.501 298.058 192.317 297.531 191.948 297.103C191.573 296.669 191.107 296.453 190.55 296.453L189.838 296.453L189.97 298.606C190.005 299.133 190.137 299.543 190.366 299.836C190.588 300.124 190.884 300.267 191.253 300.267C191.634 300.267 191.939 300.124 192.167 299.836C192.39 299.543 192.501 299.16 192.501 298.685ZM194.154 299.344C194.154 300.252 193.893 301 193.371 301.585C192.85 302.166 192.173 302.456 191.341 302.456C190.515 302.456 189.862 302.151 189.381 301.542C188.901 300.926 188.625 300.05 188.555 298.914L188.414 296.453L187.746 296.453C187.26 296.453 186.882 296.608 186.613 296.918C186.343 297.223 186.208 297.648 186.208 298.193C186.208 298.703 186.323 299.119 186.551 299.441C186.78 299.763 187.09 299.959 187.483 300.03L187.483 302.06C186.598 302.013 185.88 301.635 185.329 300.926C184.773 300.211 184.494 299.271 184.494 298.105C184.494 296.951 184.776 296.028 185.338 295.336C185.901 294.639 186.651 294.291 187.588 294.291L194.004 294.291L194.004 296.4L192.519 296.4L192.519 296.444C193.017 296.708 193.415 297.106 193.714 297.639C194.007 298.172 194.154 298.741 194.154 299.344ZM183.158 286.433L187.492 286.433L187.492 283.875C187.492 283.155 187.301 282.595 186.92 282.197C186.539 281.798 186.006 281.599 185.321 281.599C184.653 281.599 184.125 281.807 183.739 282.223C183.352 282.639 183.158 283.205 183.158 283.919L183.158 286.433ZM189.232 286.433L194.004 286.433L194.004 288.701L181.322 288.701L181.322 283.665C181.322 282.299 181.676 281.227 182.385 280.448C183.088 279.668 184.049 279.279 185.268 279.279C186.117 279.279 186.867 279.49 187.518 279.912C188.162 280.333 188.619 280.919 188.889 281.669L194.004 278.901L194.004 281.485L189.232 283.981L189.232 286.433ZM192.897 270.314C193.758 271.128 194.189 272.224 194.189 273.601C194.189 274.978 193.758 276.074 192.897 276.888C192.03 277.703 190.846 278.11 189.346 278.11C187.852 278.11 186.671 277.7 185.804 276.879C184.931 276.059 184.494 274.966 184.494 273.601C184.494 272.23 184.931 271.137 185.804 270.323C186.671 269.502 187.852 269.092 189.346 269.092C190.846 269.092 192.03 269.5 192.897 270.314ZM191.64 275.271C192.185 274.861 192.457 274.304 192.457 273.601C192.457 272.898 192.185 272.341 191.64 271.931C191.095 271.521 190.33 271.316 189.346 271.316C188.367 271.316 187.606 271.521 187.061 271.931C186.51 272.341 186.235 272.898 186.235 273.601C186.235 274.298 186.51 274.855 187.061 275.271C187.606 275.681 188.367 275.886 189.346 275.886C190.33 275.886 191.095 275.681 191.64 275.271ZM187.36 267.853C186.504 267.853 185.813 267.507 185.285 266.816C184.758 266.125 184.494 265.213 184.494 264.083C184.494 262.993 184.764 262.108 185.303 261.428C185.836 260.743 186.534 260.385 187.395 260.356L187.395 262.395C186.991 262.43 186.674 262.6 186.446 262.905C186.217 263.209 186.103 263.617 186.103 264.126C186.103 264.607 186.208 264.994 186.419 265.287C186.624 265.58 186.897 265.726 187.237 265.726C187.752 265.726 188.118 265.281 188.335 264.39L188.704 262.729C188.921 261.797 189.226 261.132 189.618 260.734C190.011 260.335 190.553 260.136 191.244 260.136C192.123 260.136 192.835 260.505 193.38 261.244C193.919 261.982 194.189 262.94 194.189 264.118C194.189 265.278 193.925 266.212 193.398 266.921C192.865 267.625 192.153 268.014 191.262 268.09L191.262 265.937C191.69 265.873 192.018 265.679 192.246 265.357C192.475 265.029 192.589 264.589 192.589 264.039C192.589 263.505 192.49 263.086 192.29 262.782C192.085 262.471 191.81 262.316 191.464 262.316C191.195 262.316 190.981 262.413 190.823 262.606C190.659 262.793 190.518 263.113 190.401 263.564L190.005 265.26C189.601 266.989 188.719 267.853 187.36 267.853ZM186.191 254.722C186.191 255.332 186.402 255.841 186.824 256.251C187.24 256.656 187.776 256.881 188.432 256.928L188.432 252.578C187.77 252.601 187.231 252.809 186.815 253.202C186.399 253.594 186.191 254.101 186.191 254.722ZM191.218 252.569L191.218 250.521C192.103 250.662 192.821 251.11 193.371 251.866C193.916 252.622 194.189 253.547 194.189 254.643C194.189 256.038 193.761 257.133 192.906 257.93C192.044 258.727 190.869 259.125 189.381 259.125C187.905 259.125 186.721 258.73 185.83 257.939C184.94 257.142 184.494 256.073 184.494 254.731C184.494 253.413 184.919 252.367 185.769 251.593C186.613 250.82 187.743 250.433 189.161 250.433L189.873 250.433L189.873 256.946L190.005 256.946C190.755 256.946 191.359 256.735 191.816 256.313C192.273 255.885 192.501 255.314 192.501 254.599C192.501 254.095 192.387 253.662 192.159 253.298C191.924 252.929 191.611 252.686 191.218 252.569Z" fill="white"/>
<path d="M166.145 322.307C166.145 324.639 164.451 326.116 161.774 326.116C159.119 326.116 157.408 324.622 157.408 322.307C157.408 320.467 158.528 319.067 160.215 318.797L160.215 319.864C159.108 320.133 158.381 321.1 158.381 322.307C158.381 323.959 159.717 325.032 161.774 325.032C163.848 325.032 165.172 323.971 165.172 322.301C165.172 321.059 164.575 320.168 163.543 319.864L163.543 318.797C165.213 319.184 166.145 320.438 166.145 322.307ZM165.242 315.698C165.242 314.737 164.569 313.999 163.69 313.999L163.192 313.999L163.291 315.627C163.344 316.448 163.707 316.917 164.282 316.917C164.862 316.917 165.242 316.43 165.242 315.698ZM166.11 315.926C166.11 317.139 165.377 317.954 164.282 317.954C163.239 317.954 162.582 317.151 162.5 315.745L162.401 313.999L161.891 313.999C161.147 313.999 160.701 314.491 160.701 315.334C160.701 316.12 161.071 316.612 161.668 316.741L161.668 317.725C160.614 317.655 159.805 316.752 159.805 315.311C159.805 313.881 160.578 312.979 161.791 312.979L166.004 312.979L166.004 313.946L164.955 313.946L164.955 313.969C165.653 314.333 166.11 315.106 166.11 315.926ZM166.004 311.684L159.91 311.684L159.91 310.723L160.907 310.723L160.907 310.7C160.233 310.5 159.805 309.938 159.805 309.223C159.805 309.047 159.834 308.895 159.846 308.813L160.836 308.813C160.807 308.895 160.778 309.112 160.778 309.358C160.778 310.149 161.346 310.665 162.207 310.665L166.004 310.665L166.004 311.684ZM166.11 305.965C166.11 307.518 164.867 308.573 162.957 308.573C161.047 308.573 159.805 307.524 159.805 305.989C159.805 305.116 160.233 304.413 160.901 304.049L160.901 304.026L157.549 304.026L157.549 303.006L166.004 303.006L166.004 303.979L164.973 303.979L164.973 303.997C165.676 304.389 166.11 305.086 166.11 305.965ZM160.701 305.772C160.701 306.85 161.58 307.53 162.957 307.53C164.34 307.53 165.213 306.85 165.213 305.772C165.213 304.723 164.323 304.02 162.957 304.02C161.598 304.02 160.701 304.723 160.701 305.772ZM166.004 292.26L166.004 293.315L162.155 293.315L162.155 297.956L166.004 297.956L166.004 299.01L157.549 299.01L157.549 297.956L161.205 297.956L161.205 293.315L157.549 293.315L157.549 292.26L166.004 292.26ZM166.11 288.252C166.11 289.94 164.897 291.077 162.957 291.077C161.012 291.077 159.805 289.94 159.805 288.252C159.805 286.571 161.012 285.434 162.957 285.434C164.897 285.434 166.11 286.571 166.11 288.252ZM165.213 288.252C165.213 287.174 164.393 286.471 162.957 286.471C161.522 286.471 160.701 287.174 160.701 288.252C160.701 289.331 161.522 290.04 162.957 290.04C164.393 290.04 165.213 289.331 165.213 288.252ZM166.004 284.35L157.549 284.35L157.549 283.331L166.004 283.331L166.004 284.35ZM166.11 279.645C166.11 281.198 164.867 282.252 162.957 282.252C161.047 282.252 159.805 281.204 159.805 279.668C159.805 278.795 160.233 278.092 160.901 277.729L160.901 277.706L157.549 277.706L157.549 276.686L166.004 276.686L166.004 277.659L164.973 277.659L164.973 277.676C165.676 278.069 166.11 278.766 166.11 279.645ZM160.701 279.452C160.701 280.53 161.58 281.209 162.957 281.209C164.34 281.209 165.213 280.53 165.213 279.452C165.213 278.403 164.323 277.7 162.957 277.7C161.598 277.7 160.701 278.403 160.701 279.452ZM160.69 272.866C160.69 273.821 161.422 274.489 162.436 274.553L162.436 271.243C161.416 271.266 160.69 271.905 160.69 272.866ZM164.258 271.266L164.258 270.264C165.325 270.44 166.11 271.471 166.11 272.801C166.11 274.547 164.897 275.608 162.981 275.608C161.088 275.608 159.805 274.53 159.805 272.848C159.805 271.202 161 270.188 162.846 270.188L163.233 270.188L163.233 274.559L163.291 274.559C164.457 274.559 165.225 273.874 165.225 272.778C165.225 272.004 164.832 271.436 164.258 271.266ZM166.004 269.157L159.91 269.157L159.91 268.196L160.907 268.196L160.907 268.172C160.233 267.973 159.805 267.411 159.805 266.696C159.805 266.52 159.834 266.368 159.846 266.286L160.836 266.286C160.807 266.368 160.778 266.584 160.778 266.831C160.778 267.622 161.346 268.137 162.207 268.137L166.004 268.137L166.004 269.157ZM166.004 262.993L159.91 262.993L159.91 262.032L160.883 262.032L160.883 262.008C160.227 261.668 159.805 261.018 159.805 260.075C159.805 258.739 160.666 257.965 162.049 257.965L166.004 257.965L166.004 258.985L162.231 258.985C161.246 258.985 160.707 259.448 160.707 260.385C160.707 261.346 161.387 261.973 162.418 261.973L166.004 261.973L166.004 262.993ZM165.242 254.655C165.242 253.694 164.569 252.956 163.69 252.956L163.192 252.956L163.291 254.584C163.344 255.405 163.707 255.874 164.282 255.874C164.862 255.874 165.242 255.387 165.242 254.655ZM166.11 254.883C166.11 256.096 165.377 256.911 164.282 256.911C163.239 256.911 162.582 256.108 162.5 254.702L162.401 252.956L161.891 252.956C161.147 252.956 160.701 253.448 160.701 254.292C160.701 255.077 161.071 255.569 161.668 255.698L161.668 256.682C160.614 256.612 159.805 255.709 159.805 254.268C159.805 252.838 160.578 251.936 161.791 251.936L166.004 251.936L166.004 252.903L164.955 252.903L164.955 252.926C165.653 253.29 166.11 254.063 166.11 254.883ZM166.004 250.641L159.91 250.641L159.91 249.68L160.883 249.68L160.883 249.657C160.239 249.37 159.805 248.749 159.805 247.928C159.805 247.096 160.227 246.481 160.965 246.217L160.965 246.194C160.239 245.854 159.805 245.139 159.805 244.284C159.805 243.077 160.59 242.297 161.797 242.297L166.004 242.297L166.004 243.317L162.032 243.317C161.2 243.317 160.707 243.78 160.707 244.583C160.707 245.391 161.305 245.959 162.131 245.959L166.004 245.959L166.004 246.979L161.92 246.979C161.188 246.979 160.707 247.471 160.707 248.227C160.707 249.036 161.34 249.622 162.184 249.622L166.004 249.622L166.004 250.641ZM160.69 238.553C160.69 239.508 161.422 240.176 162.436 240.241L162.436 236.93C161.416 236.954 160.69 237.592 160.69 238.553ZM164.258 236.954L164.258 235.952C165.325 236.127 166.11 237.159 166.11 238.489C166.11 240.235 164.897 241.295 162.981 241.295C161.088 241.295 159.805 240.217 159.805 238.536C159.805 236.889 161 235.875 162.846 235.875L163.233 235.875L163.233 240.247L163.291 240.247C164.457 240.247 165.225 239.561 165.225 238.465C165.225 237.692 164.832 237.124 164.258 236.954Z" fill="white"/>
</g>
<defs>
<linearGradient id="paint0_linear_420_138" x1="169.306" y1="335.147" x2="169.182" y2="108.031" gradientUnits="userSpaceOnUse">
<stop stop-color="#02CAFD"/>
<stop offset="1" stop-color="#83F8A6"/>
</linearGradient>
<linearGradient id="paint1_linear_420_138" x1="86.3914" y1="351.619" x2="86.3764" y2="249.449" gradientUnits="userSpaceOnUse">
<stop stop-color="#02CAFD"/>
<stop offset="1" stop-color="#83F8A6"/>
</linearGradient>
<linearGradient id="paint2_linear_420_138" x1="18.2925" y1="259.202" x2="18.236" y2="169.229" gradientUnits="userSpaceOnUse">
<stop stop-color="#02CAFD"/>
<stop offset="1" stop-color="#83F8A6"/>
</linearGradient>
<linearGradient id="paint3_linear_420_138" x1="89.8849" y1="147.895" x2="89.8538" y2="-1.36216" gradientUnits="userSpaceOnUse">
<stop stop-color="#02CAFD"/>
<stop offset="1" stop-color="#83F8A6"/>
</linearGradient>
<clipPath id="clip0_420_138">
<rect x="222.004" y="0.60791" width="350" height="222" rx="16" transform="rotate(90 222.004 0.60791)" fill="white"/>
</clipPath>
</defs>
</svg>
