<svg width="212" height="86" viewBox="0 0 212 86" fill="none" xmlns="http://www.w3.org/2000/svg">
<path d="M71.6874 36.482C68.5055 20.2306 52.7335 9.62344 36.482 12.8053C20.2306 15.9873 9.62345 31.7592 12.8054 48.0107C15.9873 64.2621 31.7593 74.8693 48.0107 71.6873C64.2621 68.5054 74.8693 52.7335 71.6874 36.482ZM58.5942 55.9506L31.4157 37.6722L33.1565 46.5634C33.3928 47.7704 32.5878 48.9674 31.3807 49.2038C30.1736 49.4401 28.9767 48.6351 28.7403 47.428L25.9562 33.208C25.7198 32.0009 26.5248 30.8039 27.7319 30.5676L41.9519 27.7834C43.159 27.5471 44.356 28.3521 44.5923 29.5592C44.8286 30.7663 44.0236 31.9632 42.8166 32.1996L33.9254 33.9404L61.1039 52.2188C61.632 52.5739 61.9476 53.093 62.0571 53.6524C62.1666 54.2117 62.0701 54.8115 61.7149 55.3395C61.0283 56.3605 59.6151 56.6372 58.5942 55.9506Z" fill="white"/>
<path d="M99.7428 23.8945V43.3359H111.872C118.376 43.3359 122.067 39.8203 122.067 33.5977C122.067 27.5156 118.13 23.8945 111.59 23.8945H99.7428ZM99.7428 48.9258V69H93.4147V18.2695H112.434C122.208 18.2695 128.606 24.2461 128.606 33.3867C128.606 40.4531 124.774 45.9375 118.411 47.9414L130.153 69H122.735L111.872 48.9258H99.7428ZM147.696 64.4297C153.462 64.4297 157.891 60.3867 157.891 55.1133V52.125L148.118 52.7227C143.196 53.0391 140.383 55.2188 140.383 58.6641C140.383 62.1445 143.301 64.4297 147.696 64.4297ZM146.325 69.6328C139.047 69.6328 134.161 65.2383 134.161 58.6641C134.161 52.4062 138.977 48.4688 147.415 47.9766L157.891 47.3789V44.3203C157.891 39.8555 154.938 37.1836 149.876 37.1836C145.165 37.1836 142.212 39.3984 141.438 42.9844H135.532C135.954 36.6562 141.368 31.8047 150.016 31.8047C158.594 31.8047 164.008 36.4453 164.008 43.7227V69H158.208V62.707H158.067C155.887 66.8906 151.247 69.6328 146.325 69.6328ZM173.747 69V37.4648H168.649V32.4375H173.747V28.3594C173.747 21.3281 177.016 17.9883 183.766 17.9883C185.137 17.9883 186.614 18.1289 187.493 18.2695V23.2266C186.755 23.1211 185.735 23.0156 184.715 23.0156C181.411 23.0156 179.829 24.7734 179.829 28.3945V32.4375H187.317V37.4648H179.864V69H173.747ZM195.614 23.6133H201.731V32.4375H208.833V37.4648H201.731V59.1914C201.731 62.5312 203.137 64.043 206.266 64.043C206.969 64.043 208.376 63.9375 208.797 63.8672V69C208.059 69.1758 206.372 69.2812 204.93 69.2812C198.215 69.2812 195.614 66.5391 195.614 59.5078V37.4648H190.165V32.4375H195.614V23.6133Z" fill="white"/>
</svg>
