<svg width="448" height="236" viewBox="0 0 448 236" fill="none" xmlns="http://www.w3.org/2000/svg">
<rect x="46" width="356" height="68" rx="12" fill="#202020"/>
<rect x="46.5" y="0.5" width="355" height="67" rx="11.5" stroke="white" stroke-opacity="0.04"/>
<rect x="46.5" y="0.5" width="355" height="67" rx="11.5" stroke="url(#paint0_linear_2_738)" stroke-opacity="0.12"/>
<rect x="62" y="16" width="36" height="36" rx="8" fill="#2B2B2B"/>
<path fill-rule="evenodd" clip-rule="evenodd" d="M73.7143 28.6668L73.7143 37.1429C73.7143 37.5149 73.4128 37.8164 73.0408 37.8164C72.6689 37.8164 72.3674 37.5149 72.3674 37.1429L72.3674 27.0409C72.3674 26.8623 72.4383 26.691 72.5646 26.5647C72.6909 26.4384 72.8622 26.3674 73.0408 26.3674L83.1429 26.3674C83.5148 26.3674 83.8164 26.669 83.8164 27.0409C83.8164 27.4128 83.5148 27.7144 83.1429 27.7144L74.6667 27.7144L86.9864 40.0341C87.2495 40.2971 87.2495 40.7235 86.9864 40.9865C86.7234 41.2495 86.297 41.2495 86.034 40.9865L73.7143 28.6668Z" fill="white"/>
<path d="M119.469 36.1875V39.7656H118.203V36.1875H114.867V34.9219H118.203V31.4297H119.469V34.9219H122.805V36.1875H119.469ZM132.344 41.0703H131.297V40.0234C129.188 39.8672 127.797 38.6562 127.789 36.9141H129.125C129.211 37.9609 130.008 38.6562 131.297 38.8125V34.75L130.672 34.5781C129 34.1406 128.062 33.1172 128.062 31.6641C128.062 29.9531 129.305 28.7891 131.297 28.5938V27.5H132.344V28.5859C134.297 28.75 135.578 29.9609 135.633 31.6484H134.305C134.273 30.6797 133.5 29.9375 132.344 29.7969V33.6172L133.008 33.7812C134.914 34.2891 135.828 35.2344 135.828 36.8125C135.828 38.6641 134.539 39.8359 132.344 40.0156V41.0703ZM134.477 36.9219C134.477 35.8906 133.82 35.2734 132.344 34.9609V38.8359C133.703 38.7656 134.477 38.0625 134.477 36.9219ZM129.406 31.5859C129.406 32.5156 130.062 33.1328 131.297 33.3906V29.7969C130.203 29.8594 129.406 30.6016 129.406 31.5859ZM137.5 31.9766C137.5 30.0078 139.094 28.5391 141.219 28.5391C143.234 28.5391 144.82 29.9062 144.82 31.6328C144.82 32.8906 144.25 33.8281 142.367 35.7734L139.516 38.7188V38.75H145.008V40H137.57V39.0312L141.539 34.8516C143.055 33.2578 143.414 32.6562 143.414 31.7188C143.414 30.6328 142.422 29.7656 141.18 29.7656C139.859 29.7656 138.859 30.7188 138.859 31.9766V31.9844H137.5V31.9766ZM146.562 31.9766C146.562 30.0078 148.156 28.5391 150.281 28.5391C152.297 28.5391 153.883 29.9062 153.883 31.6328C153.883 32.8906 153.312 33.8281 151.43 35.7734L148.578 38.7188V38.75H154.07V40H146.633V39.0312L150.602 34.8516C152.117 33.2578 152.477 32.6562 152.477 31.7188C152.477 30.6328 151.484 29.7656 150.242 29.7656C148.922 29.7656 147.922 30.7188 147.922 31.9766V31.9844H146.562V31.9766ZM156.812 40.0781C156.312 40.0781 155.922 39.6875 155.922 39.1875C155.922 38.6875 156.312 38.2969 156.812 38.2969C157.312 38.2969 157.703 38.6875 157.703 39.1875C157.703 39.6875 157.312 40.0781 156.812 40.0781ZM161.695 40V30.2188H161.664L158.68 32.3672V30.8828L161.68 28.7266H163.055V40H161.695ZM169.789 40.1875C167.633 40.1875 166.039 38.8438 165.922 36.9219H167.305C167.43 38.125 168.453 38.9531 169.805 38.9531C171.336 38.9531 172.398 37.8906 172.398 36.375C172.398 34.8594 171.328 33.7734 169.828 33.7734C168.773 33.7734 167.875 34.25 167.414 35.0391H166.094L166.711 28.7266H173.164V29.9766H167.867L167.523 33.6484H167.555C168.062 32.9688 169 32.5625 170.078 32.5625C172.242 32.5625 173.805 34.1484 173.805 36.3359C173.805 38.6016 172.141 40.1875 169.789 40.1875ZM180.141 29.9766V34.2969H182.836C184.281 34.2969 185.102 33.5156 185.102 32.1328C185.102 30.7812 184.227 29.9766 182.773 29.9766H180.141ZM180.141 35.5391V40H178.734V28.7266H182.961C185.133 28.7266 186.555 30.0547 186.555 32.0859C186.555 33.6562 185.703 34.875 184.289 35.3203L186.898 40H185.25L182.836 35.5391H180.141ZM191.375 32.9141C190.102 32.9141 189.211 33.8906 189.125 35.2422H193.539C193.508 33.8828 192.656 32.9141 191.375 32.9141ZM193.508 37.6719H194.844C194.609 39.0938 193.234 40.1406 191.461 40.1406C189.133 40.1406 187.719 38.5234 187.719 35.9688C187.719 33.4453 189.156 31.7344 191.398 31.7344C193.594 31.7344 194.945 33.3281 194.945 35.7891V36.3047H189.117V36.3828C189.117 37.9375 190.031 38.9609 191.492 38.9609C192.523 38.9609 193.281 38.4375 193.508 37.6719ZM203.07 34.5391H201.742C201.547 33.6562 200.859 32.9297 199.664 32.9297C198.258 32.9297 197.305 34.0938 197.305 35.9375C197.305 37.8281 198.273 38.9453 199.68 38.9453C200.789 38.9453 201.516 38.3594 201.75 37.3828H203.086C202.875 39 201.516 40.1406 199.672 40.1406C197.422 40.1406 195.922 38.5547 195.922 35.9375C195.922 33.375 197.414 31.7344 199.656 31.7344C201.688 31.7344 202.898 33.0781 203.07 34.5391ZM207.594 32.9141C206.32 32.9141 205.43 33.8906 205.344 35.2422H209.758C209.727 33.8828 208.875 32.9141 207.594 32.9141ZM209.727 37.6719H211.062C210.828 39.0938 209.453 40.1406 207.68 40.1406C205.352 40.1406 203.938 38.5234 203.938 35.9688C203.938 33.4453 205.375 31.7344 207.617 31.7344C209.812 31.7344 211.164 33.3281 211.164 35.7891V36.3047H205.336V36.3828C205.336 37.9375 206.25 38.9609 207.711 38.9609C208.742 38.9609 209.5 38.4375 209.727 37.6719ZM212.609 40V31.875H213.969V40H212.609ZM213.289 30.5078C212.828 30.5078 212.445 30.125 212.445 29.6641C212.445 29.1953 212.828 28.8203 213.289 28.8203C213.758 28.8203 214.141 29.1953 214.141 29.6641C214.141 30.125 213.758 30.5078 213.289 30.5078ZM222.469 31.875L219.484 40H218.094L215.102 31.875H216.531L218.773 38.5547H218.805L221.055 31.875H222.469ZM226.562 32.9141C225.289 32.9141 224.398 33.8906 224.312 35.2422H228.727C228.695 33.8828 227.844 32.9141 226.562 32.9141ZM228.695 37.6719H230.031C229.797 39.0938 228.422 40.1406 226.648 40.1406C224.32 40.1406 222.906 38.5234 222.906 35.9688C222.906 33.4453 224.344 31.7344 226.586 31.7344C228.781 31.7344 230.133 33.3281 230.133 35.7891V36.3047H224.305V36.3828C224.305 37.9375 225.219 38.9609 226.68 38.9609C227.711 38.9609 228.469 38.4375 228.695 37.6719ZM234.586 40.1406C232.516 40.1406 231.109 38.4844 231.109 35.9375C231.109 33.3906 232.508 31.7344 234.555 31.7344C235.719 31.7344 236.656 32.3047 237.141 33.1953H237.172V28.7266H238.531V40H237.234V38.625H237.211C236.688 39.5625 235.758 40.1406 234.586 40.1406ZM234.844 32.9297C233.406 32.9297 232.5 34.1016 232.5 35.9375C232.5 37.7812 233.406 38.9453 234.844 38.9453C236.242 38.9453 237.18 37.7578 237.18 35.9375C237.18 34.125 236.242 32.9297 234.844 32.9297ZM244.086 40V32.9922H242.953V31.875H244.086V30.9688C244.086 29.4062 244.812 28.6641 246.312 28.6641C246.617 28.6641 246.945 28.6953 247.141 28.7266V29.8281C246.977 29.8047 246.75 29.7812 246.523 29.7812C245.789 29.7812 245.438 30.1719 245.438 30.9766V31.875H247.102V32.9922H245.445V40H244.086ZM248.508 40V31.875H249.789V33.2031H249.82C250.086 32.3047 250.836 31.7344 251.789 31.7344C252.023 31.7344 252.227 31.7734 252.336 31.7891V33.1094C252.227 33.0703 251.938 33.0312 251.609 33.0312C250.555 33.0312 249.867 33.7891 249.867 34.9375V40H248.508ZM256.422 40.1406C254.172 40.1406 252.656 38.5234 252.656 35.9375C252.656 33.3438 254.172 31.7344 256.422 31.7344C258.664 31.7344 260.18 33.3438 260.18 35.9375C260.18 38.5234 258.664 40.1406 256.422 40.1406ZM256.422 38.9453C257.859 38.9453 258.797 37.8516 258.797 35.9375C258.797 34.0234 257.859 32.9297 256.422 32.9297C254.984 32.9297 254.039 34.0234 254.039 35.9375C254.039 37.8516 254.984 38.9453 256.422 38.9453ZM261.555 40V31.875H262.836V33.1719H262.867C263.25 32.3125 264.078 31.7344 265.172 31.7344C266.281 31.7344 267.102 32.2969 267.453 33.2812H267.484C267.938 32.3125 268.891 31.7344 270.031 31.7344C271.641 31.7344 272.68 32.7812 272.68 34.3906V40H271.32V34.7031C271.32 33.5938 270.703 32.9375 269.633 32.9375C268.555 32.9375 267.797 33.7344 267.797 34.8359V40H266.438V34.5547C266.438 33.5781 265.781 32.9375 264.773 32.9375C263.695 32.9375 262.914 33.7812 262.914 34.9062V40H261.555ZM279.297 40H277.906V28.7266H279.273L285.445 37.5781H285.516V28.7266H286.906V40H285.539L279.367 31.1797H279.297V40ZM292.188 38.8672C293.602 38.8672 294.547 37.6953 294.547 35.9062C294.547 34.1172 293.602 32.9297 292.188 32.9297C290.789 32.9297 289.875 34.0859 289.875 35.9062C289.875 37.7266 290.789 38.8672 292.188 38.8672ZM292.234 43.0625C290.445 43.0625 289.031 42.0547 288.805 40.6719H290.203C290.469 41.4141 291.273 41.9062 292.289 41.9062C293.695 41.9062 294.547 41.0938 294.547 39.8828V38.6016H294.516C294.016 39.4844 293.055 40.0625 291.914 40.0625C289.844 40.0625 288.484 38.4297 288.484 35.9062C288.484 33.3594 289.844 31.7344 291.945 31.7344C293.094 31.7344 294.047 32.2969 294.586 33.2422H294.609V31.875H295.906V39.8359C295.906 41.7734 294.477 43.0625 292.234 43.0625ZM304.352 31.875V40H303.062V38.6797H303.031C302.547 39.6172 301.703 40.1406 300.453 40.1406C298.68 40.1406 297.641 38.9922 297.641 37.1484V31.875H299V36.9062C299 38.2266 299.617 38.9375 300.875 38.9375C302.195 38.9375 302.992 38.0312 302.992 36.6484V31.875H304.352ZM306.789 43.0391C306.625 43.0391 306.352 43.0234 306.203 42.9922V41.8516C306.352 41.8828 306.562 41.8906 306.734 41.8906C307.492 41.8906 307.914 41.5234 308.227 40.5781L308.414 40.0078L305.414 31.875H306.867L309.117 38.6406H309.141L311.391 31.875H312.82L309.625 40.5703C308.93 42.4688 308.258 43.0391 306.789 43.0391ZM316.922 32.9141C315.648 32.9141 314.758 33.8906 314.672 35.2422H319.086C319.055 33.8828 318.203 32.9141 316.922 32.9141ZM319.055 37.6719H320.391C320.156 39.0938 318.781 40.1406 317.008 40.1406C314.68 40.1406 313.266 38.5234 313.266 35.9688C313.266 33.4453 314.703 31.7344 316.945 31.7344C319.141 31.7344 320.492 33.3281 320.492 35.7891V36.3047H314.664V36.3828C314.664 37.9375 315.578 38.9609 317.039 38.9609C318.07 38.9609 318.828 38.4375 319.055 37.6719ZM321.867 40V31.875H323.148V33.1719H323.18C323.633 32.2969 324.5 31.7344 325.758 31.7344C327.539 31.7344 328.57 32.8828 328.57 34.7266V40H327.211V34.9688C327.211 33.6562 326.594 32.9375 325.344 32.9375C324.062 32.9375 323.227 33.8438 323.227 35.2188V40H321.867ZM333.258 36.8984H334.672C334.805 38.1172 335.961 38.9219 337.57 38.9219C339.094 38.9219 340.203 38.1172 340.203 37.0078C340.203 36.0547 339.539 35.4688 338.023 35.0781L336.578 34.7031C334.5 34.1719 333.578 33.2578 333.578 31.7266C333.578 29.8516 335.219 28.5391 337.562 28.5391C339.805 28.5391 341.43 29.8672 341.492 31.7578H340.086C339.961 30.5469 338.984 29.8047 337.516 29.8047C336.055 29.8047 335.039 30.5625 335.039 31.6641C335.039 32.5156 335.664 33.0234 337.195 33.4219L338.375 33.7344C340.711 34.3203 341.656 35.2188 341.656 36.8359C341.656 38.8984 340.031 40.1875 337.438 40.1875C335.047 40.1875 333.391 38.8906 333.258 36.8984ZM343.156 40V28.7266H344.516V33.1719H344.547C345 32.2656 345.891 31.7344 347.125 31.7344C348.906 31.7344 349.984 32.9375 349.984 34.75V40H348.625V35C348.625 33.7109 347.977 32.9375 346.703 32.9375C345.352 32.9375 344.516 33.8594 344.516 35.2656V40H343.156ZM354.391 38.9844C355.672 38.9844 356.656 38.0859 356.656 36.9141V36.25L354.484 36.3828C353.391 36.4531 352.766 36.9375 352.766 37.7031C352.766 38.4766 353.414 38.9844 354.391 38.9844ZM354.086 40.1406C352.469 40.1406 351.383 39.1641 351.383 37.7031C351.383 36.3125 352.453 35.4375 354.328 35.3281L356.656 35.1953V34.5156C356.656 33.5234 356 32.9297 354.875 32.9297C353.828 32.9297 353.172 33.4219 353 34.2188H351.688C351.781 32.8125 352.984 31.7344 354.906 31.7344C356.812 31.7344 358.016 32.7656 358.016 34.3828V40H356.727V38.6016H356.695C356.211 39.5312 355.18 40.1406 354.086 40.1406ZM359.742 40V31.875H361.023V33.1719H361.055C361.508 32.2969 362.375 31.7344 363.633 31.7344C365.414 31.7344 366.445 32.8828 366.445 34.7266V40H365.086V34.9688C365.086 33.6562 364.469 32.9375 363.219 32.9375C361.938 32.9375 361.102 33.8438 361.102 35.2188V40H359.742ZM371.438 32.9141C370.164 32.9141 369.273 33.8906 369.188 35.2422H373.602C373.57 33.8828 372.719 32.9141 371.438 32.9141ZM373.57 37.6719H374.906C374.672 39.0938 373.297 40.1406 371.523 40.1406C369.195 40.1406 367.781 38.5234 367.781 35.9688C367.781 33.4453 369.219 31.7344 371.461 31.7344C373.656 31.7344 375.008 33.3281 375.008 35.7891V36.3047H369.18V36.3828C369.18 37.9375 370.094 38.9609 371.555 38.9609C372.586 38.9609 373.344 38.4375 373.57 37.6719Z" fill="white"/>
<rect y="80" width="448" height="76" rx="16" fill="#202020"/>
<rect x="0.5" y="80.5" width="447" height="75" rx="15.5" stroke="white" stroke-opacity="0.04"/>
<rect x="0.5" y="80.5" width="447" height="75" rx="15.5" stroke="url(#paint1_linear_2_738)" stroke-opacity="0.12"/>
<rect x="24" y="96" width="44" height="44" rx="8" fill="#2B2B2B"/>
<path fill-rule="evenodd" clip-rule="evenodd" d="M39.7143 112.667L39.7143 121.143C39.7143 121.515 39.4128 121.816 39.0408 121.816C38.6689 121.816 38.3674 121.515 38.3674 121.143L38.3674 111.041C38.3674 110.862 38.4383 110.691 38.5646 110.565C38.6909 110.438 38.8622 110.367 39.0408 110.367L49.1429 110.367C49.5148 110.367 49.8164 110.669 49.8164 111.041C49.8164 111.413 49.5148 111.714 49.1429 111.714L40.6667 111.714L52.9864 124.034C53.2495 124.297 53.2495 124.723 52.9864 124.987C52.7234 125.25 52.297 125.25 52.034 124.987L39.7143 112.667Z" fill="white"/>
<path d="M90.8359 120.234V124.707H89.2539V120.234H85.084V118.652H89.2539V114.287H90.8359V118.652H95.0059V120.234H90.8359ZM106.93 126.338H105.621V125.029C102.984 124.834 101.246 123.32 101.236 121.143H102.906C103.014 122.451 104.01 123.32 105.621 123.516V118.438L104.84 118.223C102.75 117.676 101.578 116.396 101.578 114.58C101.578 112.441 103.131 110.986 105.621 110.742V109.375H106.93V110.732C109.371 110.938 110.973 112.451 111.041 114.561H109.381C109.342 113.35 108.375 112.422 106.93 112.246V117.021L107.76 117.227C110.143 117.861 111.285 119.043 111.285 121.016C111.285 123.33 109.674 124.795 106.93 125.02V126.338ZM109.596 121.152C109.596 119.863 108.775 119.092 106.93 118.701V123.545C108.629 123.457 109.596 122.578 109.596 121.152ZM103.258 114.482C103.258 115.645 104.078 116.416 105.621 116.738V112.246C104.254 112.324 103.258 113.252 103.258 114.482ZM116.334 118.496V117.012H118.023C119.645 117.012 120.777 115.967 120.777 114.541C120.777 113.145 119.83 112.197 118.043 112.197C116.422 112.197 115.348 113.125 115.191 114.6H113.502C113.697 112.207 115.475 110.674 118.121 110.674C120.641 110.674 122.545 112.188 122.545 114.307C122.545 116.074 121.412 117.344 119.654 117.656V117.695C121.783 117.822 123.15 119.141 123.15 121.123C123.15 123.545 120.943 125.234 118.18 125.234C115.23 125.234 113.346 123.604 113.219 121.27H114.908C115.064 122.715 116.266 123.711 118.16 123.711C120.025 123.711 121.363 122.656 121.363 121.182C121.363 119.521 120.113 118.496 118.102 118.496H116.334ZM130.23 125.234C126.939 125.234 125.035 122.402 125.035 117.949C125.035 113.535 126.959 110.674 130.23 110.674C133.502 110.674 135.406 113.516 135.406 117.939C135.406 122.393 133.512 125.234 130.23 125.234ZM130.23 123.701C132.428 123.701 133.639 121.465 133.639 117.949C133.639 114.482 132.408 112.217 130.23 112.217C128.053 112.217 126.803 114.502 126.803 117.939C126.803 121.455 128.023 123.701 130.23 123.701ZM142.359 125.234C139.068 125.234 137.164 122.402 137.164 117.949C137.164 113.535 139.088 110.674 142.359 110.674C145.631 110.674 147.535 113.516 147.535 117.939C147.535 122.393 145.641 125.234 142.359 125.234ZM142.359 123.701C144.557 123.701 145.768 121.465 145.768 117.949C145.768 114.482 144.537 112.217 142.359 112.217C140.182 112.217 138.932 114.502 138.932 117.939C138.932 121.455 140.152 123.701 142.359 123.701ZM150.562 125.098C149.938 125.098 149.449 124.609 149.449 123.984C149.449 123.359 149.938 122.871 150.562 122.871C151.188 122.871 151.676 123.359 151.676 123.984C151.676 124.609 151.188 125.098 150.562 125.098ZM159.283 125.234C156.588 125.234 154.596 123.555 154.449 121.152H156.178C156.334 122.656 157.613 123.691 159.303 123.691C161.217 123.691 162.545 122.363 162.545 120.469C162.545 118.574 161.207 117.217 159.332 117.217C158.014 117.217 156.891 117.812 156.314 118.799H154.664L155.436 110.908H163.502V112.471H156.881L156.451 117.061H156.49C157.125 116.211 158.297 115.703 159.645 115.703C162.35 115.703 164.303 117.686 164.303 120.42C164.303 123.252 162.223 125.234 159.283 125.234ZM166.051 114.971C166.051 112.51 168.043 110.674 170.699 110.674C173.219 110.674 175.201 112.383 175.201 114.541C175.201 116.113 174.488 117.285 172.135 119.717L168.57 123.398V123.438H175.436V125H166.139V123.789L171.1 118.564C172.994 116.572 173.443 115.82 173.443 114.648C173.443 113.291 172.203 112.207 170.65 112.207C169 112.207 167.75 113.398 167.75 114.971V114.98H166.051V114.971ZM183.551 112.471V117.871H186.92C188.727 117.871 189.752 116.895 189.752 115.166C189.752 113.477 188.658 112.471 186.842 112.471H183.551ZM183.551 119.424V125H181.793V110.908H187.076C189.791 110.908 191.568 112.568 191.568 115.107C191.568 117.07 190.504 118.594 188.736 119.15L191.998 125H189.938L186.92 119.424H183.551ZM197.594 116.143C196.002 116.143 194.889 117.363 194.781 119.053H200.299C200.26 117.354 199.195 116.143 197.594 116.143ZM200.26 122.09H201.93C201.637 123.867 199.918 125.176 197.701 125.176C194.791 125.176 193.023 123.154 193.023 119.961C193.023 116.807 194.82 114.668 197.623 114.668C200.367 114.668 202.057 116.66 202.057 119.736V120.381H194.771V120.479C194.771 122.422 195.914 123.701 197.74 123.701C199.029 123.701 199.977 123.047 200.26 122.09ZM212.213 118.174H210.553C210.309 117.07 209.449 116.162 207.955 116.162C206.197 116.162 205.006 117.617 205.006 119.922C205.006 122.285 206.217 123.682 207.975 123.682C209.361 123.682 210.27 122.949 210.562 121.729H212.232C211.969 123.75 210.27 125.176 207.965 125.176C205.152 125.176 203.277 123.193 203.277 119.922C203.277 116.719 205.143 114.668 207.945 114.668C210.484 114.668 211.998 116.348 212.213 118.174ZM217.867 116.143C216.275 116.143 215.162 117.363 215.055 119.053H220.572C220.533 117.354 219.469 116.143 217.867 116.143ZM220.533 122.09H222.203C221.91 123.867 220.191 125.176 217.975 125.176C215.064 125.176 213.297 123.154 213.297 119.961C213.297 116.807 215.094 114.668 217.896 114.668C220.641 114.668 222.33 116.66 222.33 119.736V120.381H215.045V120.479C215.045 122.422 216.188 123.701 218.014 123.701C219.303 123.701 220.25 123.047 220.533 122.09ZM224.137 125V114.844H225.836V125H224.137ZM224.986 113.135C224.41 113.135 223.932 112.656 223.932 112.08C223.932 111.494 224.41 111.025 224.986 111.025C225.572 111.025 226.051 111.494 226.051 112.08C226.051 112.656 225.572 113.135 224.986 113.135ZM236.461 114.844L232.73 125H230.992L227.252 114.844H229.039L231.842 123.193H231.881L234.693 114.844H236.461ZM241.578 116.143C239.986 116.143 238.873 117.363 238.766 119.053H244.283C244.244 117.354 243.18 116.143 241.578 116.143ZM244.244 122.09H245.914C245.621 123.867 243.902 125.176 241.686 125.176C238.775 125.176 237.008 123.154 237.008 119.961C237.008 116.807 238.805 114.668 241.607 114.668C244.352 114.668 246.041 116.66 246.041 119.736V120.381H238.756V120.479C238.756 122.422 239.898 123.701 241.725 123.701C243.014 123.701 243.961 123.047 244.244 122.09ZM251.607 125.176C249.02 125.176 247.262 123.105 247.262 119.922C247.262 116.738 249.01 114.668 251.568 114.668C253.023 114.668 254.195 115.381 254.801 116.494H254.84V110.908H256.539V125H254.918V123.281H254.889C254.234 124.453 253.072 125.176 251.607 125.176ZM251.93 116.162C250.133 116.162 249 117.627 249 119.922C249 122.227 250.133 123.682 251.93 123.682C253.678 123.682 254.85 122.197 254.85 119.922C254.85 117.656 253.678 116.162 251.93 116.162ZM263.482 125V116.24H262.066V114.844H263.482V113.711C263.482 111.758 264.391 110.83 266.266 110.83C266.646 110.83 267.057 110.869 267.301 110.908V112.285C267.096 112.256 266.812 112.227 266.529 112.227C265.611 112.227 265.172 112.715 265.172 113.721V114.844H267.252V116.24H265.182V125H263.482ZM269.01 125V114.844H270.611V116.504H270.65C270.982 115.381 271.92 114.668 273.111 114.668C273.404 114.668 273.658 114.717 273.795 114.736V116.387C273.658 116.338 273.297 116.289 272.887 116.289C271.568 116.289 270.709 117.236 270.709 118.672V125H269.01ZM278.902 125.176C276.09 125.176 274.195 123.154 274.195 119.922C274.195 116.68 276.09 114.668 278.902 114.668C281.705 114.668 283.6 116.68 283.6 119.922C283.6 123.154 281.705 125.176 278.902 125.176ZM278.902 123.682C280.699 123.682 281.871 122.314 281.871 119.922C281.871 117.529 280.699 116.162 278.902 116.162C277.105 116.162 275.924 117.529 275.924 119.922C275.924 122.314 277.105 123.682 278.902 123.682ZM285.318 125V114.844H286.92V116.465H286.959C287.438 115.391 288.473 114.668 289.84 114.668C291.227 114.668 292.252 115.371 292.691 116.602H292.73C293.297 115.391 294.488 114.668 295.914 114.668C297.926 114.668 299.225 115.977 299.225 117.988V125H297.525V118.379C297.525 116.992 296.754 116.172 295.416 116.172C294.068 116.172 293.121 117.168 293.121 118.545V125H291.422V118.193C291.422 116.973 290.602 116.172 289.342 116.172C287.994 116.172 287.018 117.227 287.018 118.633V125H285.318ZM311.559 125.234C307.672 125.234 305.211 122.412 305.211 117.949C305.211 113.525 307.701 110.674 311.559 110.674C314.625 110.674 316.959 112.539 317.408 115.352H315.631C315.182 113.506 313.57 112.295 311.559 112.295C308.805 112.295 307.018 114.521 307.018 117.949C307.018 121.406 308.785 123.613 311.568 123.613C313.639 123.613 315.123 122.617 315.631 120.898H317.408C316.764 123.682 314.674 125.234 311.559 125.234ZM323.434 125.176C320.621 125.176 318.727 123.154 318.727 119.922C318.727 116.68 320.621 114.668 323.434 114.668C326.236 114.668 328.131 116.68 328.131 119.922C328.131 123.154 326.236 125.176 323.434 125.176ZM323.434 123.682C325.23 123.682 326.402 122.314 326.402 119.922C326.402 117.529 325.23 116.162 323.434 116.162C321.637 116.162 320.455 117.529 320.455 119.922C320.455 122.314 321.637 123.682 323.434 123.682ZM334.059 125.176C331.246 125.176 329.352 123.154 329.352 119.922C329.352 116.68 331.246 114.668 334.059 114.668C336.861 114.668 338.756 116.68 338.756 119.922C338.756 123.154 336.861 125.176 334.059 125.176ZM334.059 123.682C335.855 123.682 337.027 122.314 337.027 119.922C337.027 117.529 335.855 116.162 334.059 116.162C332.262 116.162 331.08 117.529 331.08 119.922C331.08 122.314 332.262 123.682 334.059 123.682ZM345.406 114.668C347.994 114.668 349.752 116.738 349.752 119.922C349.752 123.105 348.004 125.176 345.445 125.176C343.99 125.176 342.818 124.463 342.213 123.35H342.174V128.389H340.475V114.844H342.086V116.562H342.125C342.75 115.42 343.932 114.668 345.406 114.668ZM345.074 123.682C346.881 123.682 348.014 122.227 348.014 119.922C348.014 117.627 346.881 116.162 345.074 116.162C343.336 116.162 342.164 117.666 342.164 119.922C342.164 122.188 343.336 123.682 345.074 123.682ZM355.543 116.143C353.951 116.143 352.838 117.363 352.73 119.053H358.248C358.209 117.354 357.145 116.143 355.543 116.143ZM358.209 122.09H359.879C359.586 123.867 357.867 125.176 355.65 125.176C352.74 125.176 350.973 123.154 350.973 119.961C350.973 116.807 352.77 114.668 355.572 114.668C358.316 114.668 360.006 116.66 360.006 119.736V120.381H352.721V120.479C352.721 122.422 353.863 123.701 355.689 123.701C356.979 123.701 357.926 123.047 358.209 122.09ZM361.725 125V114.844H363.326V116.504H363.365C363.697 115.381 364.635 114.668 365.826 114.668C366.119 114.668 366.373 114.717 366.51 114.736V116.387C366.373 116.338 366.012 116.289 365.602 116.289C364.283 116.289 363.424 117.236 363.424 118.672V125H361.725ZM374.02 125H372.262V110.908H374.02V117.783H374.117L380.338 110.908H382.555L376.764 117.148L383.072 125H380.826L375.543 118.398L374.02 120.078V125ZM384.303 125V114.844H385.904V116.504H385.943C386.275 115.381 387.213 114.668 388.404 114.668C388.697 114.668 388.951 114.717 389.088 114.736V116.387C388.951 116.338 388.59 116.289 388.18 116.289C386.861 116.289 386.002 117.236 386.002 118.672V125H384.303ZM390.562 125V114.844H392.262V125H390.562ZM391.412 113.135C390.836 113.135 390.357 112.656 390.357 112.08C390.357 111.494 390.836 111.025 391.412 111.025C391.998 111.025 392.477 111.494 392.477 112.08C392.477 112.656 391.998 113.135 391.412 113.135ZM394.381 117.646C394.381 115.908 395.934 114.668 398.17 114.668C400.27 114.668 401.812 115.918 401.891 117.637H400.27C400.152 116.66 399.361 116.055 398.111 116.055C396.871 116.055 396.051 116.67 396.051 117.559C396.051 118.262 396.588 118.73 397.74 119.023L399.312 119.404C401.363 119.922 402.105 120.664 402.105 122.158C402.105 123.926 400.436 125.176 398.062 125.176C395.836 125.176 394.283 123.965 394.107 122.168H395.807C395.992 123.223 396.793 123.789 398.17 123.789C399.547 123.789 400.396 123.203 400.396 122.285C400.396 121.562 399.977 121.172 398.834 120.869L397.047 120.41C395.26 119.951 394.381 119.033 394.381 117.646ZM404.42 112.393H406.119V114.844H408.092V116.24H406.119V122.275C406.119 123.203 406.51 123.623 407.379 123.623C407.574 123.623 407.965 123.594 408.082 123.574V125C407.877 125.049 407.408 125.078 407.008 125.078C405.143 125.078 404.42 124.316 404.42 122.363V116.24H402.906V114.844H404.42V112.393ZM409.996 125V114.844H411.695V125H409.996ZM410.846 113.135C410.27 113.135 409.791 112.656 409.791 112.08C409.791 111.494 410.27 111.025 410.846 111.025C411.432 111.025 411.91 111.494 411.91 112.08C411.91 112.656 411.432 113.135 410.846 113.135ZM413.99 125V114.844H415.592V116.465H415.631C416.197 115.371 417.281 114.668 418.854 114.668C421.08 114.668 422.369 116.104 422.369 118.408V125H420.67V118.711C420.67 117.07 419.898 116.172 418.336 116.172C416.734 116.172 415.689 117.305 415.689 119.023V125H413.99Z" fill="white"/>
<rect x="46" y="168" width="356" height="68" rx="12" fill="#202020"/>
<rect x="46.5" y="168.5" width="355" height="67" rx="11.5" stroke="white" stroke-opacity="0.04"/>
<rect x="46.5" y="168.5" width="355" height="67" rx="11.5" stroke="url(#paint2_linear_2_738)" stroke-opacity="0.12"/>
<rect x="62" y="184" width="36" height="36" rx="8" fill="#2B2B2B"/>
<path fill-rule="evenodd" clip-rule="evenodd" d="M74.2143 196.667L74.2143 205.143C74.2143 205.515 73.9128 205.816 73.5408 205.816C73.1689 205.816 72.8674 205.515 72.8674 205.143L72.8674 195.041C72.8674 194.862 72.9383 194.691 73.0646 194.565C73.1909 194.438 73.3622 194.367 73.5408 194.367L83.6429 194.367C84.0148 194.367 84.3164 194.669 84.3164 195.041C84.3164 195.413 84.0148 195.714 83.6429 195.714L75.1667 195.714L87.4864 208.034C87.7495 208.297 87.7495 208.723 87.4864 208.987C87.2234 209.25 86.797 209.25 86.534 208.987L74.2143 196.667Z" fill="white"/>
<path d="M119.469 204.188V207.766H118.203V204.188H114.867V202.922H118.203V199.43H119.469V202.922H122.805V204.188H119.469ZM132.344 209.07H131.297V208.023C129.188 207.867 127.797 206.656 127.789 204.914H129.125C129.211 205.961 130.008 206.656 131.297 206.812V202.75L130.672 202.578C129 202.141 128.062 201.117 128.062 199.664C128.062 197.953 129.305 196.789 131.297 196.594V195.5H132.344V196.586C134.297 196.75 135.578 197.961 135.633 199.648H134.305C134.273 198.68 133.5 197.938 132.344 197.797V201.617L133.008 201.781C134.914 202.289 135.828 203.234 135.828 204.812C135.828 206.664 134.539 207.836 132.344 208.016V209.07ZM134.477 204.922C134.477 203.891 133.82 203.273 132.344 202.961V206.836C133.703 206.766 134.477 206.062 134.477 204.922ZM129.406 199.586C129.406 200.516 130.062 201.133 131.297 201.391V197.797C130.203 197.859 129.406 198.602 129.406 199.586ZM141.445 208.188C139.289 208.188 137.695 206.844 137.578 204.922H138.961C139.086 206.125 140.109 206.953 141.461 206.953C142.992 206.953 144.055 205.891 144.055 204.375C144.055 202.859 142.984 201.773 141.484 201.773C140.43 201.773 139.531 202.25 139.07 203.039H137.75L138.367 196.727H144.82V197.977H139.523L139.18 201.648H139.211C139.719 200.969 140.656 200.562 141.734 200.562C143.898 200.562 145.461 202.148 145.461 204.336C145.461 206.602 143.797 208.188 141.445 208.188ZM150.875 208.188C148.242 208.188 146.719 205.922 146.719 202.359C146.719 198.828 148.258 196.539 150.875 196.539C153.492 196.539 155.016 198.812 155.016 202.352C155.016 205.914 153.5 208.188 150.875 208.188ZM150.875 206.961C152.633 206.961 153.602 205.172 153.602 202.359C153.602 199.586 152.617 197.773 150.875 197.773C149.133 197.773 148.133 199.602 148.133 202.352C148.133 205.164 149.109 206.961 150.875 206.961ZM157.438 208.078C156.938 208.078 156.547 207.688 156.547 207.188C156.547 206.688 156.938 206.297 157.438 206.297C157.938 206.297 158.328 206.688 158.328 207.188C158.328 207.688 157.938 208.078 157.438 208.078ZM164.328 208.188C161.695 208.188 160.172 205.922 160.172 202.359C160.172 198.828 161.711 196.539 164.328 196.539C166.945 196.539 168.469 198.812 168.469 202.352C168.469 205.914 166.953 208.188 164.328 208.188ZM164.328 206.961C166.086 206.961 167.055 205.172 167.055 202.359C167.055 199.586 166.07 197.773 164.328 197.773C162.586 197.773 161.586 199.602 161.586 202.352C161.586 205.164 162.562 206.961 164.328 206.961ZM174.031 208.188C171.398 208.188 169.875 205.922 169.875 202.359C169.875 198.828 171.414 196.539 174.031 196.539C176.648 196.539 178.172 198.812 178.172 202.352C178.172 205.914 176.656 208.188 174.031 208.188ZM174.031 206.961C175.789 206.961 176.758 205.172 176.758 202.359C176.758 199.586 175.773 197.773 174.031 197.773C172.289 197.773 171.289 199.602 171.289 202.352C171.289 205.164 172.266 206.961 174.031 206.961ZM184.656 197.977V202.297H187.352C188.797 202.297 189.617 201.516 189.617 200.133C189.617 198.781 188.742 197.977 187.289 197.977H184.656ZM184.656 203.539V208H183.25V196.727H187.477C189.648 196.727 191.07 198.055 191.07 200.086C191.07 201.656 190.219 202.875 188.805 203.32L191.414 208H189.766L187.352 203.539H184.656ZM195.891 200.914C194.617 200.914 193.727 201.891 193.641 203.242H198.055C198.023 201.883 197.172 200.914 195.891 200.914ZM198.023 205.672H199.359C199.125 207.094 197.75 208.141 195.977 208.141C193.648 208.141 192.234 206.523 192.234 203.969C192.234 201.445 193.672 199.734 195.914 199.734C198.109 199.734 199.461 201.328 199.461 203.789V204.305H193.633V204.383C193.633 205.938 194.547 206.961 196.008 206.961C197.039 206.961 197.797 206.438 198.023 205.672ZM207.586 202.539H206.258C206.062 201.656 205.375 200.93 204.18 200.93C202.773 200.93 201.82 202.094 201.82 203.938C201.82 205.828 202.789 206.945 204.195 206.945C205.305 206.945 206.031 206.359 206.266 205.383H207.602C207.391 207 206.031 208.141 204.188 208.141C201.938 208.141 200.438 206.555 200.438 203.938C200.438 201.375 201.93 199.734 204.172 199.734C206.203 199.734 207.414 201.078 207.586 202.539ZM212.109 200.914C210.836 200.914 209.945 201.891 209.859 203.242H214.273C214.242 201.883 213.391 200.914 212.109 200.914ZM214.242 205.672H215.578C215.344 207.094 213.969 208.141 212.195 208.141C209.867 208.141 208.453 206.523 208.453 203.969C208.453 201.445 209.891 199.734 212.133 199.734C214.328 199.734 215.68 201.328 215.68 203.789V204.305H209.852V204.383C209.852 205.938 210.766 206.961 212.227 206.961C213.258 206.961 214.016 206.438 214.242 205.672ZM217.125 208V199.875H218.484V208H217.125ZM217.805 198.508C217.344 198.508 216.961 198.125 216.961 197.664C216.961 197.195 217.344 196.82 217.805 196.82C218.273 196.82 218.656 197.195 218.656 197.664C218.656 198.125 218.273 198.508 217.805 198.508ZM226.984 199.875L224 208H222.609L219.617 199.875H221.047L223.289 206.555H223.32L225.57 199.875H226.984ZM231.078 200.914C229.805 200.914 228.914 201.891 228.828 203.242H233.242C233.211 201.883 232.359 200.914 231.078 200.914ZM233.211 205.672H234.547C234.312 207.094 232.938 208.141 231.164 208.141C228.836 208.141 227.422 206.523 227.422 203.969C227.422 201.445 228.859 199.734 231.102 199.734C233.297 199.734 234.648 201.328 234.648 203.789V204.305H228.82V204.383C228.82 205.938 229.734 206.961 231.195 206.961C232.227 206.961 232.984 206.438 233.211 205.672ZM239.102 208.141C237.031 208.141 235.625 206.484 235.625 203.938C235.625 201.391 237.023 199.734 239.07 199.734C240.234 199.734 241.172 200.305 241.656 201.195H241.688V196.727H243.047V208H241.75V206.625H241.727C241.203 207.562 240.273 208.141 239.102 208.141ZM239.359 200.93C237.922 200.93 237.016 202.102 237.016 203.938C237.016 205.781 237.922 206.945 239.359 206.945C240.758 206.945 241.695 205.758 241.695 203.938C241.695 202.125 240.758 200.93 239.359 200.93ZM248.602 208V200.992H247.469V199.875H248.602V198.969C248.602 197.406 249.328 196.664 250.828 196.664C251.133 196.664 251.461 196.695 251.656 196.727V197.828C251.492 197.805 251.266 197.781 251.039 197.781C250.305 197.781 249.953 198.172 249.953 198.977V199.875H251.617V200.992H249.961V208H248.602ZM253.023 208V199.875H254.305V201.203H254.336C254.602 200.305 255.352 199.734 256.305 199.734C256.539 199.734 256.742 199.773 256.852 199.789V201.109C256.742 201.07 256.453 201.031 256.125 201.031C255.07 201.031 254.383 201.789 254.383 202.938V208H253.023ZM260.938 208.141C258.688 208.141 257.172 206.523 257.172 203.938C257.172 201.344 258.688 199.734 260.938 199.734C263.18 199.734 264.695 201.344 264.695 203.938C264.695 206.523 263.18 208.141 260.938 208.141ZM260.938 206.945C262.375 206.945 263.312 205.852 263.312 203.938C263.312 202.023 262.375 200.93 260.938 200.93C259.5 200.93 258.555 202.023 258.555 203.938C258.555 205.852 259.5 206.945 260.938 206.945ZM266.07 208V199.875H267.352V201.172H267.383C267.766 200.312 268.594 199.734 269.688 199.734C270.797 199.734 271.617 200.297 271.969 201.281H272C272.453 200.312 273.406 199.734 274.547 199.734C276.156 199.734 277.195 200.781 277.195 202.391V208H275.836V202.703C275.836 201.594 275.219 200.938 274.148 200.938C273.07 200.938 272.312 201.734 272.312 202.836V208H270.953V202.555C270.953 201.578 270.297 200.938 269.289 200.938C268.211 200.938 267.43 201.781 267.43 202.906V208H266.07ZM293.531 208H292.219V199.312H292.164L288.57 207.922H287.383L283.789 199.312H283.734V208H282.422V196.727H284.055L287.945 206.133H288.008L291.898 196.727H293.531V208ZM295.578 208V199.875H296.938V208H295.578ZM296.258 198.508C295.797 198.508 295.414 198.125 295.414 197.664C295.414 197.195 295.797 196.82 296.258 196.82C296.727 196.82 297.109 197.195 297.109 197.664C297.109 198.125 296.727 198.508 296.258 198.508ZM298.844 208V196.727H300.203V208H298.844ZM305.297 200.914C304.023 200.914 303.133 201.891 303.047 203.242H307.461C307.43 201.883 306.578 200.914 305.297 200.914ZM307.43 205.672H308.766C308.531 207.094 307.156 208.141 305.383 208.141C303.055 208.141 301.641 206.523 301.641 203.969C301.641 201.445 303.078 199.734 305.32 199.734C307.516 199.734 308.867 201.328 308.867 203.789V204.305H303.039V204.383C303.039 205.938 303.953 206.961 305.414 206.961C306.445 206.961 307.203 206.438 307.43 205.672ZM310.102 202.117C310.102 200.727 311.344 199.734 313.133 199.734C314.812 199.734 316.047 200.734 316.109 202.109H314.812C314.719 201.328 314.086 200.844 313.086 200.844C312.094 200.844 311.438 201.336 311.438 202.047C311.438 202.609 311.867 202.984 312.789 203.219L314.047 203.523C315.688 203.938 316.281 204.531 316.281 205.727C316.281 207.141 314.945 208.141 313.047 208.141C311.266 208.141 310.023 207.172 309.883 205.734H311.242C311.391 206.578 312.031 207.031 313.133 207.031C314.234 207.031 314.914 206.562 314.914 205.828C314.914 205.25 314.578 204.938 313.664 204.695L312.234 204.328C310.805 203.961 310.102 203.227 310.102 202.117ZM328.172 206.734V208H321.188V196.727H328.172V197.992H322.594V201.609H327.883V202.859H322.594V206.734H328.172ZM329.68 202.117C329.68 200.727 330.922 199.734 332.711 199.734C334.391 199.734 335.625 200.734 335.688 202.109H334.391C334.297 201.328 333.664 200.844 332.664 200.844C331.672 200.844 331.016 201.336 331.016 202.047C331.016 202.609 331.445 202.984 332.367 203.219L333.625 203.523C335.266 203.938 335.859 204.531 335.859 205.727C335.859 207.141 334.523 208.141 332.625 208.141C330.844 208.141 329.602 207.172 329.461 205.734H330.82C330.969 206.578 331.609 207.031 332.711 207.031C333.812 207.031 334.492 206.562 334.492 205.828C334.492 205.25 334.156 204.938 333.242 204.695L331.812 204.328C330.383 203.961 329.68 203.227 329.68 202.117ZM337.711 197.914H339.07V199.875H340.648V200.992H339.07V205.82C339.07 206.562 339.383 206.898 340.078 206.898C340.234 206.898 340.547 206.875 340.641 206.859V208C340.477 208.039 340.102 208.062 339.781 208.062C338.289 208.062 337.711 207.453 337.711 205.891V200.992H336.5V199.875H337.711V197.914ZM342.172 208V196.727H343.531V201.172H343.562C344.016 200.266 344.906 199.734 346.141 199.734C347.922 199.734 349 200.938 349 202.75V208H347.641V203C347.641 201.711 346.992 200.938 345.719 200.938C344.367 200.938 343.531 201.859 343.531 203.266V208H342.172ZM353.984 200.914C352.711 200.914 351.82 201.891 351.734 203.242H356.148C356.117 201.883 355.266 200.914 353.984 200.914ZM356.117 205.672H357.453C357.219 207.094 355.844 208.141 354.07 208.141C351.742 208.141 350.328 206.523 350.328 203.969C350.328 201.445 351.766 199.734 354.008 199.734C356.203 199.734 357.555 201.328 357.555 203.789V204.305H351.727V204.383C351.727 205.938 352.641 206.961 354.102 206.961C355.133 206.961 355.891 206.438 356.117 205.672ZM358.93 208V199.875H360.211V201.203H360.242C360.508 200.305 361.258 199.734 362.211 199.734C362.445 199.734 362.648 199.773 362.758 199.789V201.109C362.648 201.07 362.359 201.031 362.031 201.031C360.977 201.031 360.289 201.789 360.289 202.938V208H358.93Z" fill="white"/>
<defs>
<linearGradient id="paint0_linear_2_738" x1="224" y1="0" x2="224" y2="50.3462" gradientUnits="userSpaceOnUse">
<stop stop-color="white"/>
<stop offset="1" stop-color="white" stop-opacity="0"/>
</linearGradient>
<linearGradient id="paint1_linear_2_738" x1="224" y1="80" x2="224" y2="136.269" gradientUnits="userSpaceOnUse">
<stop stop-color="white"/>
<stop offset="1" stop-color="white" stop-opacity="0"/>
</linearGradient>
<linearGradient id="paint2_linear_2_738" x1="224" y1="168" x2="224" y2="218.346" gradientUnits="userSpaceOnUse">
<stop stop-color="white"/>
<stop offset="1" stop-color="white" stop-opacity="0"/>
</linearGradient>
</defs>
</svg>
