<svg width="409" height="228" viewBox="0 0 409 228" fill="none" xmlns="http://www.w3.org/2000/svg">
<path d="M39 16C39 7.16344 46.1634 0 55 0H409V64H55C46.1634 64 39 56.8366 39 48V16Z" fill="#202020"/>
<path d="M55 0.5H408.5V63.5H55C46.4396 63.5 39.5 56.5604 39.5 48V16C39.5 7.43959 46.4396 0.5 55 0.5Z" stroke="white" stroke-opacity="0.01"/>
<path d="M55 0.5H408.5V63.5H55C46.4396 63.5 39.5 56.5604 39.5 48V16C39.5 7.43959 46.4396 0.5 55 0.5Z" stroke="url(#paint0_radial_2_776)" stroke-opacity="0.12"/>
<rect x="55" y="12" width="40" height="40" rx="8" fill="#2B4089"/>
<path d="M84 26.375C84 29.0674 79.9706 31.25 75 31.25C70.0294 31.25 66 29.0674 66 26.375C66 23.6826 70.0294 21.5 75 21.5C79.9706 21.5 84 23.6826 84 26.375Z" fill="white"/>
<path d="M75 32.75C77.6852 32.75 80.1905 32.1637 82.0784 31.1411C82.7684 30.7673 83.4248 30.3043 83.9747 29.7567C83.9915 29.8783 84 30.0011 84 30.125C84 32.8174 79.9706 35 75 35C70.0294 35 66 32.8174 66 30.125C66 30.0011 66.0085 29.8783 66.0253 29.7567C66.5752 30.3043 67.2316 30.7673 67.9216 31.1411C69.8095 32.1637 72.3148 32.75 75 32.75Z" fill="white"/>
<path d="M75 36.5C77.6852 36.5 80.1905 35.9137 82.0784 34.8911C82.7684 34.5173 83.4248 34.0543 83.9747 33.5067C83.9915 33.6283 84 33.7511 84 33.875C84 36.5674 79.9706 38.75 75 38.75C70.0294 38.75 66 36.5674 66 33.875C66 33.7511 66.0085 33.6283 66.0253 33.5067C66.5752 34.0543 67.2316 34.5173 67.9216 34.8911C69.8095 35.9137 72.3148 36.5 75 36.5Z" fill="white"/>
<path d="M75 40.25C77.6852 40.25 80.1905 39.6637 82.0784 38.6411C82.7684 38.2673 83.4248 37.8043 83.9747 37.2567C83.9915 37.3783 84 37.5011 84 37.625C84 40.3174 79.9706 42.5 75 42.5C70.0294 42.5 66 40.3174 66 37.625C66 37.5011 66.0085 37.3783 66.0253 37.2567C66.5752 37.8043 67.2316 38.2673 67.9216 38.6411C69.8095 39.6637 72.3148 40.25 75 40.25Z" fill="white"/>
<path d="M118.246 39.2344C114.291 39.2344 111.791 36.4414 111.791 31.9492C111.791 27.4863 114.311 24.6738 118.246 24.6738C121.439 24.6738 123.852 26.6367 124.223 29.5762H122.055C121.664 27.7695 120.16 26.5879 118.246 26.5879C115.688 26.5879 114.027 28.6875 114.027 31.9492C114.027 35.2402 115.668 37.3203 118.256 37.3203C120.219 37.3203 121.615 36.3145 122.055 34.6152H124.232C123.695 37.5254 121.488 39.2344 118.246 39.2344ZM125.951 39V28.7266H127.963V30.4746H128.012C128.354 29.2734 129.271 28.5605 130.482 28.5605C130.785 28.5605 131.049 28.6094 131.205 28.6387V30.6016C131.039 30.5332 130.668 30.4844 130.258 30.4844C128.9 30.4844 128.061 31.3926 128.061 32.8477V39H125.951ZM133.529 42.8281C133.363 42.8281 132.826 42.8086 132.67 42.7793V41.0703C132.826 41.1094 133.178 41.1094 133.354 41.1094C134.34 41.1094 134.857 40.6992 135.18 39.6445C135.18 39.625 135.365 39.0195 135.365 39.0098L131.654 28.7266H133.939L136.547 37.0859H136.576L139.184 28.7266H141.41L137.553 39.5371C136.674 42.0273 135.668 42.8281 133.529 42.8281ZM148.002 28.5605C150.609 28.5605 152.328 30.6113 152.328 33.8633C152.328 37.1152 150.619 39.1758 148.041 39.1758C146.566 39.1758 145.395 38.4531 144.809 37.3105H144.76V42.3984H142.65V28.7266H144.691V30.4941H144.73C145.336 29.3125 146.518 28.5605 148.002 28.5605ZM147.445 37.3887C149.115 37.3887 150.16 36.0215 150.16 33.8633C150.16 31.7148 149.115 30.3379 147.445 30.3379C145.834 30.3379 144.75 31.7441 144.75 33.8633C144.75 36.002 145.824 37.3887 147.445 37.3887ZM154.574 26.2949H156.693V28.7266H158.646V30.3965H156.693V36.0605C156.693 36.9492 157.084 37.3496 157.943 37.3496C158.158 37.3496 158.5 37.3301 158.637 37.3008V38.9707C158.402 39.0293 157.934 39.0684 157.465 39.0684C155.385 39.0684 154.574 38.2773 154.574 36.2949V30.3965H153.08V28.7266H154.574V26.2949ZM164.545 39.1953C161.605 39.1953 159.672 37.1738 159.672 33.8633C159.672 30.5625 161.615 28.541 164.545 28.541C167.475 28.541 169.418 30.5625 169.418 33.8633C169.418 37.1738 167.484 39.1953 164.545 39.1953ZM164.545 37.457C166.205 37.457 167.27 36.1484 167.27 33.8633C167.27 31.5879 166.195 30.2793 164.545 30.2793C162.895 30.2793 161.82 31.5879 161.82 33.8633C161.82 36.1484 162.895 37.457 164.545 37.457ZM179.867 32.2617H177.855C177.641 31.168 176.82 30.2988 175.443 30.2988C173.812 30.2988 172.738 31.6562 172.738 33.8633C172.738 36.1191 173.822 37.4277 175.463 37.4277C176.762 37.4277 177.611 36.7148 177.855 35.5234H179.887C179.662 37.7109 177.914 39.1953 175.443 39.1953C172.504 39.1953 170.59 37.1836 170.59 33.8633C170.59 30.6016 172.504 28.541 175.424 28.541C178.07 28.541 179.682 30.2402 179.867 32.2617ZM190.189 28.7266V39H188.168V37.2617H188.119C187.553 38.4922 186.508 39.1855 184.936 39.1855C182.699 39.1855 181.332 37.7305 181.332 35.377V28.7266H183.441V34.9668C183.441 36.5293 184.184 37.3691 185.639 37.3691C187.162 37.3691 188.08 36.3145 188.08 34.7129V28.7266H190.189ZM192.279 39V28.7266H194.291V30.4746H194.34C194.682 29.2734 195.6 28.5605 196.811 28.5605C197.113 28.5605 197.377 28.6094 197.533 28.6387V30.6016C197.367 30.5332 196.996 30.4844 196.586 30.4844C195.229 30.4844 194.389 31.3926 194.389 32.8477V39H192.279ZM198.842 39V28.7266H200.854V30.4746H200.902C201.244 29.2734 202.162 28.5605 203.373 28.5605C203.676 28.5605 203.939 28.6094 204.096 28.6387V30.6016C203.93 30.5332 203.559 30.4844 203.148 30.4844C201.791 30.4844 200.951 31.3926 200.951 32.8477V39H198.842ZM209.252 30.2402C207.777 30.2402 206.742 31.3633 206.635 32.916H211.771C211.723 31.3438 210.727 30.2402 209.252 30.2402ZM211.762 35.9824H213.764C213.471 37.8574 211.693 39.1953 209.34 39.1953C206.322 39.1953 204.496 37.1543 204.496 33.9121C204.496 30.6895 206.352 28.541 209.252 28.541C212.104 28.541 213.881 30.5527 213.881 33.668V34.3906H206.625V34.5176C206.625 36.3047 207.699 37.4863 209.389 37.4863C210.59 37.4863 211.479 36.8809 211.762 35.9824ZM215.521 39V28.7266H217.533V30.4453H217.582C218.139 29.2734 219.232 28.5508 220.814 28.5508C223.08 28.5508 224.379 29.9961 224.379 32.3496V39H222.26V32.7598C222.26 31.2168 221.537 30.3672 220.072 30.3672C218.588 30.3672 217.631 31.4219 217.631 33.0137V39H215.521ZM235.238 32.2617H233.227C233.012 31.168 232.191 30.2988 230.814 30.2988C229.184 30.2988 228.109 31.6562 228.109 33.8633C228.109 36.1191 229.193 37.4277 230.834 37.4277C232.133 37.4277 232.982 36.7148 233.227 35.5234H235.258C235.033 37.7109 233.285 39.1953 230.814 39.1953C227.875 39.1953 225.961 37.1836 225.961 33.8633C225.961 30.6016 227.875 28.541 230.795 28.541C233.441 28.541 235.053 30.2402 235.238 32.2617ZM237.768 42.8281C237.602 42.8281 237.064 42.8086 236.908 42.7793V41.0703C237.064 41.1094 237.416 41.1094 237.592 41.1094C238.578 41.1094 239.096 40.6992 239.418 39.6445C239.418 39.625 239.604 39.0195 239.604 39.0098L235.893 28.7266H238.178L240.785 37.0859H240.814L243.422 28.7266H245.648L241.791 39.5371C240.912 42.0273 239.906 42.8281 237.768 42.8281Z" fill="white"/>
<path d="M0 92C0 83.1634 7.16344 76 16 76H409V152H16C7.16343 152 0 144.837 0 136V92Z" fill="#202020"/>
<path d="M16 76.5H408.5V151.5H16C7.43959 151.5 0.5 144.56 0.5 136V92C0.5 83.5735 7.22424 76.7172 15.5996 76.5049L16 76.5Z" stroke="white" stroke-opacity="0.01"/>
<path d="M16 76.5H408.5V151.5H16C7.43959 151.5 0.5 144.56 0.5 136V92C0.5 83.5735 7.22424 76.7172 15.5996 76.5049L16 76.5Z" stroke="url(#paint1_radial_2_776)" stroke-opacity="0.12"/>
<rect x="16" y="92" width="44" height="44" rx="8" fill="#2B892E"/>
<path d="M38 109.5C36.7574 109.5 35.75 110.507 35.75 111.75C35.75 112.993 36.7574 114 38 114C39.2426 114 40.25 112.993 40.25 111.75C40.25 110.507 39.2426 109.5 38 109.5Z" fill="white"/>
<path fill-rule="evenodd" clip-rule="evenodd" d="M27.5 106.875C27.5 105.839 28.3395 105 29.375 105H46.625C47.6605 105 48.5 105.839 48.5 106.875V116.625C48.5 117.661 47.6605 118.5 46.625 118.5H29.375C28.3395 118.5 27.5 117.661 27.5 116.625V106.875ZM34.25 111.75C34.25 109.679 35.9289 108 38 108C40.0711 108 41.75 109.679 41.75 111.75C41.75 113.821 40.0711 115.5 38 115.5C35.9289 115.5 34.25 113.821 34.25 111.75ZM44.75 111C44.3358 111 44 111.336 44 111.75V111.758C44 112.172 44.3358 112.508 44.75 112.508H44.7575C45.1717 112.508 45.5075 112.172 45.5075 111.758V111.75C45.5075 111.336 45.1717 111 44.7575 111H44.75ZM30.5 111.75C30.5 111.336 30.8358 111 31.25 111H31.2575C31.6717 111 32.0075 111.336 32.0075 111.75V111.758C32.0075 112.172 31.6717 112.508 31.2575 112.508H31.25C30.8358 112.508 30.5 112.172 30.5 111.758V111.75Z" fill="white"/>
<path d="M28.25 120C27.8358 120 27.5 120.336 27.5 120.75C27.5 121.164 27.8358 121.5 28.25 121.5C33.65 121.5 38.8802 122.222 43.8498 123.575C45.0404 123.899 46.25 123.017 46.25 121.755V120.75C46.25 120.336 45.9142 120 45.5 120H28.25Z" fill="white"/>
<path d="M76.8086 118.289H79.3984C79.5859 119.965 81.2148 121.066 83.4414 121.066C85.5742 121.066 87.1094 119.965 87.1094 118.453C87.1094 117.141 86.1836 116.355 83.9922 115.816L81.8008 115.289C78.6953 114.539 77.2539 113.086 77.2539 110.73C77.2539 107.812 79.7969 105.809 83.4062 105.809C86.9805 105.809 89.4297 107.812 89.5117 110.73H86.957C86.8047 109.043 85.4102 108.023 83.3711 108.023C81.332 108.023 79.9375 109.055 79.9375 110.555C79.9375 111.75 80.8281 112.453 83.0078 112.992L84.8711 113.449C88.3398 114.27 89.7812 115.664 89.7812 118.137C89.7812 121.301 87.2617 123.281 83.2539 123.281C79.5039 123.281 76.9727 121.348 76.8086 118.289ZM91.832 123V110.672H94.2461V112.746H94.3047C94.8555 111.375 96.1445 110.461 97.8086 110.461C99.5195 110.461 100.762 111.34 101.254 112.875H101.312C101.945 111.375 103.398 110.461 105.156 110.461C107.594 110.461 109.188 112.078 109.188 114.527V123H106.645V115.137C106.645 113.543 105.789 112.629 104.289 112.629C102.789 112.629 101.746 113.742 101.746 115.301V123H99.2617V114.949C99.2617 113.531 98.3594 112.629 96.9297 112.629C95.4297 112.629 94.3633 113.801 94.3633 115.383V123H91.832ZM115.949 121.207C117.719 121.207 119.102 119.988 119.102 118.383V117.41L116.066 117.598C114.555 117.703 113.699 118.371 113.699 119.426C113.699 120.504 114.59 121.207 115.949 121.207ZM115.246 123.211C112.832 123.211 111.145 121.711 111.145 119.496C111.145 117.34 112.797 116.016 115.727 115.852L119.102 115.652V114.703C119.102 113.332 118.176 112.512 116.629 112.512C115.164 112.512 114.25 113.215 114.027 114.316H111.637C111.777 112.09 113.676 110.449 116.723 110.449C119.711 110.449 121.621 112.031 121.621 114.504V123H119.195V120.973H119.137C118.422 122.344 116.863 123.211 115.246 123.211ZM124.082 123V110.672H126.496V112.77H126.555C126.965 111.328 128.066 110.473 129.52 110.473C129.883 110.473 130.199 110.531 130.387 110.566V112.922C130.188 112.84 129.742 112.781 129.25 112.781C127.621 112.781 126.613 113.871 126.613 115.617V123H124.082ZM132.695 107.754H135.238V110.672H137.582V112.676H135.238V119.473C135.238 120.539 135.707 121.02 136.738 121.02C136.996 121.02 137.406 120.996 137.57 120.961V122.965C137.289 123.035 136.727 123.082 136.164 123.082C133.668 123.082 132.695 122.133 132.695 119.754V112.676H130.902V110.672H132.695V107.754ZM144.848 106.09H151.188C154.469 106.09 156.754 108.352 156.754 111.645C156.754 114.949 154.422 117.223 151.105 117.223H147.473V123H144.848V106.09ZM147.473 108.305V115.02H150.484C152.77 115.02 154.07 113.789 154.07 111.656C154.07 109.523 152.77 108.305 150.496 108.305H147.473ZM163.504 123.234C159.977 123.234 157.656 120.809 157.656 116.836C157.656 112.875 159.988 110.449 163.504 110.449C167.02 110.449 169.352 112.875 169.352 116.836C169.352 120.809 167.031 123.234 163.504 123.234ZM163.504 121.148C165.496 121.148 166.773 119.578 166.773 116.836C166.773 114.105 165.484 112.535 163.504 112.535C161.523 112.535 160.234 114.105 160.234 116.836C160.234 119.578 161.523 121.148 163.504 121.148ZM171.309 123V110.672H173.723V112.77H173.781C174.191 111.328 175.293 110.473 176.746 110.473C177.109 110.473 177.426 110.531 177.613 110.566V112.922C177.414 112.84 176.969 112.781 176.477 112.781C174.848 112.781 173.84 113.871 173.84 115.617V123H171.309ZM179.922 107.754H182.465V110.672H184.809V112.676H182.465V119.473C182.465 120.539 182.934 121.02 183.965 121.02C184.223 121.02 184.633 120.996 184.797 120.961V122.965C184.516 123.035 183.953 123.082 183.391 123.082C180.895 123.082 179.922 122.133 179.922 119.754V112.676H178.129V110.672H179.922V107.754ZM187.633 123V112.676H185.934V110.695H187.633V109.488C187.633 107.098 188.758 105.973 191.266 105.973C191.781 105.973 192.355 106.031 192.684 106.09V107.965C192.438 107.918 192.098 107.895 191.758 107.895C190.656 107.895 190.141 108.445 190.141 109.535V110.695H192.637V112.676H190.176V123H187.633ZM199.41 123.234C195.883 123.234 193.562 120.809 193.562 116.836C193.562 112.875 195.895 110.449 199.41 110.449C202.926 110.449 205.258 112.875 205.258 116.836C205.258 120.809 202.938 123.234 199.41 123.234ZM199.41 121.148C201.402 121.148 202.68 119.578 202.68 116.836C202.68 114.105 201.391 112.535 199.41 112.535C197.43 112.535 196.141 114.105 196.141 116.836C196.141 119.578 197.43 121.148 199.41 121.148ZM207.309 123V106.09H209.84V123H207.309ZM212.523 123V110.672H215.055V123H212.523ZM213.789 108.867C212.98 108.867 212.324 108.223 212.324 107.426C212.324 106.617 212.98 105.973 213.789 105.973C214.609 105.973 215.266 106.617 215.266 107.426C215.266 108.223 214.609 108.867 213.789 108.867ZM222.941 123.234C219.414 123.234 217.094 120.809 217.094 116.836C217.094 112.875 219.426 110.449 222.941 110.449C226.457 110.449 228.789 112.875 228.789 116.836C228.789 120.809 226.469 123.234 222.941 123.234ZM222.941 121.148C224.934 121.148 226.211 119.578 226.211 116.836C226.211 114.105 224.922 112.535 222.941 112.535C220.961 112.535 219.672 114.105 219.672 116.836C219.672 119.578 220.961 121.148 222.941 121.148ZM238.551 123H235.926V106.09H238.551V123ZM241.363 123V110.672H243.777V112.734H243.836C244.504 111.328 245.816 110.461 247.715 110.461C250.434 110.461 251.992 112.195 251.992 115.02V123H249.449V115.512C249.449 113.66 248.582 112.641 246.824 112.641C245.043 112.641 243.895 113.906 243.895 115.816V123H241.363ZM264.965 110.672L260.547 123H257.828L253.387 110.672H256.082L259.176 120.527H259.223L262.316 110.672H264.965ZM271.223 112.488C269.453 112.488 268.211 113.836 268.082 115.699H274.246C274.188 113.812 272.992 112.488 271.223 112.488ZM274.234 119.379H276.637C276.285 121.629 274.152 123.234 271.328 123.234C267.707 123.234 265.516 120.785 265.516 116.895C265.516 113.027 267.742 110.449 271.223 110.449C274.645 110.449 276.777 112.863 276.777 116.602V117.469H268.07V117.621C268.07 119.766 269.359 121.184 271.387 121.184C272.828 121.184 273.895 120.457 274.234 119.379ZM278.523 114.164C278.523 111.961 280.469 110.449 283.352 110.449C286.094 110.449 288.016 111.984 288.098 114.176H285.719C285.602 113.062 284.699 112.371 283.281 112.371C281.91 112.371 280.996 113.039 280.996 114.012C280.996 114.773 281.605 115.289 282.883 115.605L284.957 116.086C287.441 116.684 288.379 117.621 288.379 119.438C288.379 121.688 286.281 123.234 283.258 123.234C280.34 123.234 278.406 121.723 278.207 119.461H280.715C280.914 120.645 281.828 121.301 283.375 121.301C284.898 121.301 285.836 120.668 285.836 119.672C285.836 118.887 285.367 118.453 284.078 118.125L281.875 117.586C279.648 117.047 278.523 115.887 278.523 114.164ZM291.086 107.754H293.629V110.672H295.973V112.676H293.629V119.473C293.629 120.539 294.098 121.02 295.129 121.02C295.387 121.02 295.797 120.996 295.961 120.961V122.965C295.68 123.035 295.117 123.082 294.555 123.082C292.059 123.082 291.086 122.133 291.086 119.754V112.676H289.293V110.672H291.086V107.754ZM298.141 123V110.672H300.672V123H298.141ZM299.406 108.867C298.598 108.867 297.941 108.223 297.941 107.426C297.941 106.617 298.598 105.973 299.406 105.973C300.227 105.973 300.883 106.617 300.883 107.426C300.883 108.223 300.227 108.867 299.406 108.867ZM303.262 123V110.672H305.676V112.734H305.734C306.402 111.328 307.715 110.461 309.613 110.461C312.332 110.461 313.891 112.195 313.891 115.02V123H311.348V115.512C311.348 113.66 310.48 112.641 308.723 112.641C306.941 112.641 305.793 113.906 305.793 115.816V123H303.262ZM321.59 120.949C323.57 120.949 324.871 119.344 324.871 116.801C324.871 114.27 323.57 112.605 321.59 112.605C319.645 112.605 318.379 114.234 318.379 116.801C318.379 119.379 319.645 120.949 321.59 120.949ZM321.613 127.641C318.707 127.641 316.551 126.094 316.234 123.961H318.777C319.141 124.992 320.266 125.672 321.707 125.672C323.688 125.672 324.859 124.547 324.859 122.859V120.832H324.812C324.121 122.168 322.668 123.047 320.91 123.047C317.816 123.047 315.789 120.633 315.789 116.789C315.789 112.91 317.805 110.473 320.969 110.473C322.715 110.473 324.145 111.352 324.895 112.781H324.941V110.672H327.402V122.777C327.402 125.719 325.129 127.641 321.613 127.641Z" fill="white"/>
<path d="M39 180C39 171.163 46.1634 164 55 164H409V228H55C46.1634 228 39 220.837 39 212V180Z" fill="#202020"/>
<path d="M55 164.5H408.5V227.5H55C46.4396 227.5 39.5 220.56 39.5 212V180C39.5 171.44 46.4396 164.5 55 164.5Z" stroke="white" stroke-opacity="0.01"/>
<path d="M55 164.5H408.5V227.5H55C46.4396 227.5 39.5 220.56 39.5 212V180C39.5 171.44 46.4396 164.5 55 164.5Z" stroke="url(#paint2_radial_2_776)" stroke-opacity="0.12"/>
<rect x="55" y="176" width="40" height="40" rx="8" fill="#D06604"/>
<path d="M68.625 187.75C67.1753 187.75 66 188.925 66 190.375C66 191.825 67.1753 193 68.625 193H81.375C82.8247 193 84 191.825 84 190.375C84 188.925 82.8247 187.75 81.375 187.75H68.625Z" fill="white"/>
<path d="M66.75 195.25C66.3358 195.25 66 195.586 66 196C66 196.414 66.3358 196.75 66.75 196.75H83.25C83.6642 196.75 84 196.414 84 196C84 195.586 83.6642 195.25 83.25 195.25H66.75Z" fill="white"/>
<path d="M66 199.75C66 199.336 66.3358 199 66.75 199H83.25C83.6642 199 84 199.336 84 199.75C84 200.164 83.6642 200.5 83.25 200.5H66.75C66.3358 200.5 66 200.164 66 199.75Z" fill="white"/>
<path d="M66.75 202.75C66.3358 202.75 66 203.086 66 203.5C66 203.914 66.3358 204.25 66.75 204.25H83.25C83.6642 204.25 84 203.914 84 203.5C84 203.086 83.6642 202.75 83.25 202.75H66.75Z" fill="white"/>
<path d="M111.674 199.074H113.832C113.988 200.471 115.346 201.389 117.201 201.389C118.979 201.389 120.258 200.471 120.258 199.211C120.258 198.117 119.486 197.463 117.66 197.014L115.834 196.574C113.246 195.949 112.045 194.738 112.045 192.775C112.045 190.344 114.164 188.674 117.172 188.674C120.15 188.674 122.191 190.344 122.26 192.775H120.131C120.004 191.369 118.842 190.52 117.143 190.52C115.443 190.52 114.281 191.379 114.281 192.629C114.281 193.625 115.023 194.211 116.84 194.66L118.393 195.041C121.283 195.725 122.484 196.887 122.484 198.947C122.484 201.584 120.385 203.234 117.045 203.234C113.92 203.234 111.811 201.623 111.674 199.074ZM133.002 192.727V203H130.98V201.262H130.932C130.365 202.492 129.32 203.186 127.748 203.186C125.512 203.186 124.145 201.73 124.145 199.377V192.727H126.254V198.967C126.254 200.529 126.996 201.369 128.451 201.369C129.975 201.369 130.893 200.314 130.893 198.713V192.727H133.002ZM134.906 195.637C134.906 193.801 136.527 192.541 138.93 192.541C141.215 192.541 142.816 193.82 142.885 195.646H140.902C140.805 194.719 140.053 194.143 138.871 194.143C137.729 194.143 136.967 194.699 136.967 195.51C136.967 196.145 137.475 196.574 138.539 196.838L140.268 197.238C142.338 197.736 143.119 198.518 143.119 200.031C143.119 201.906 141.371 203.195 138.852 203.195C136.42 203.195 134.809 201.936 134.643 200.051H136.732C136.898 201.037 137.66 201.584 138.949 201.584C140.219 201.584 141 201.057 141 200.227C141 199.572 140.609 199.211 139.535 198.938L137.699 198.488C135.844 198.039 134.906 197.072 134.906 195.637ZM145.375 190.295H147.494V192.727H149.447V194.396H147.494V200.061C147.494 200.949 147.885 201.35 148.744 201.35C148.959 201.35 149.301 201.33 149.438 201.301V202.971C149.203 203.029 148.734 203.068 148.266 203.068C146.186 203.068 145.375 202.277 145.375 200.295V194.396H143.881V192.727H145.375V190.295ZM154.623 201.506C156.098 201.506 157.25 200.49 157.25 199.152V198.342L154.721 198.498C153.461 198.586 152.748 199.143 152.748 200.021C152.748 200.92 153.49 201.506 154.623 201.506ZM154.037 203.176C152.025 203.176 150.619 201.926 150.619 200.08C150.619 198.283 151.996 197.18 154.438 197.043L157.25 196.877V196.086C157.25 194.943 156.479 194.26 155.189 194.26C153.969 194.26 153.207 194.846 153.021 195.764H151.029C151.146 193.908 152.729 192.541 155.268 192.541C157.758 192.541 159.35 193.859 159.35 195.92V203H157.328V201.311H157.279C156.684 202.453 155.385 203.176 154.037 203.176ZM161.469 203V192.727H163.578V203H161.469ZM162.523 191.223C161.85 191.223 161.303 190.686 161.303 190.021C161.303 189.348 161.85 188.811 162.523 188.811C163.207 188.811 163.754 189.348 163.754 190.021C163.754 190.686 163.207 191.223 162.523 191.223ZM165.736 203V192.727H167.748V194.445H167.797C168.354 193.273 169.447 192.551 171.029 192.551C173.295 192.551 174.594 193.996 174.594 196.35V203H172.475V196.76C172.475 195.217 171.752 194.367 170.287 194.367C168.803 194.367 167.846 195.422 167.846 197.014V203H165.736ZM180.229 201.506C181.703 201.506 182.855 200.49 182.855 199.152V198.342L180.326 198.498C179.066 198.586 178.354 199.143 178.354 200.021C178.354 200.92 179.096 201.506 180.229 201.506ZM179.643 203.176C177.631 203.176 176.225 201.926 176.225 200.08C176.225 198.283 177.602 197.18 180.043 197.043L182.855 196.877V196.086C182.855 194.943 182.084 194.26 180.795 194.26C179.574 194.26 178.812 194.846 178.627 195.764H176.635C176.752 193.908 178.334 192.541 180.873 192.541C183.363 192.541 184.955 193.859 184.955 195.92V203H182.934V201.311H182.885C182.289 202.453 180.99 203.176 179.643 203.176ZM192.475 203.176C190.971 203.176 189.809 202.443 189.174 201.252H189.135V203H187.084V188.908H189.193V194.475H189.242C189.857 193.283 191.029 192.561 192.484 192.561C195.072 192.561 196.762 194.611 196.762 197.863C196.762 201.125 195.082 203.176 192.475 203.176ZM191.908 194.338C190.307 194.338 189.184 195.744 189.184 197.863C189.184 200.002 190.307 201.389 191.908 201.389C193.568 201.389 194.594 200.041 194.594 197.863C194.594 195.705 193.568 194.338 191.908 194.338ZM198.49 203V188.908H200.6V203H198.49ZM207.064 194.24C205.59 194.24 204.555 195.363 204.447 196.916H209.584C209.535 195.344 208.539 194.24 207.064 194.24ZM209.574 199.982H211.576C211.283 201.857 209.506 203.195 207.152 203.195C204.135 203.195 202.309 201.154 202.309 197.912C202.309 194.689 204.164 192.541 207.064 192.541C209.916 192.541 211.693 194.553 211.693 197.668V198.391H204.438V198.518C204.438 200.305 205.512 201.486 207.201 201.486C208.402 201.486 209.291 200.881 209.574 199.982ZM219.838 203H217.65V188.908H219.838V203ZM222.182 203V192.727H224.193V194.445H224.242C224.799 193.273 225.893 192.551 227.475 192.551C229.74 192.551 231.039 193.996 231.039 196.35V203H228.92V196.76C228.92 195.217 228.197 194.367 226.732 194.367C225.248 194.367 224.291 195.422 224.291 197.014V203H222.182ZM241.85 192.727L238.168 203H235.902L232.201 192.727H234.447L237.025 200.939H237.064L239.643 192.727H241.85ZM247.064 194.24C245.59 194.24 244.555 195.363 244.447 196.916H249.584C249.535 195.344 248.539 194.24 247.064 194.24ZM249.574 199.982H251.576C251.283 201.857 249.506 203.195 247.152 203.195C244.135 203.195 242.309 201.154 242.309 197.912C242.309 194.689 244.164 192.541 247.064 192.541C249.916 192.541 251.693 194.553 251.693 197.668V198.391H244.438V198.518C244.438 200.305 245.512 201.486 247.201 201.486C248.402 201.486 249.291 200.881 249.574 199.982ZM253.148 195.637C253.148 193.801 254.77 192.541 257.172 192.541C259.457 192.541 261.059 193.82 261.127 195.646H259.145C259.047 194.719 258.295 194.143 257.113 194.143C255.971 194.143 255.209 194.699 255.209 195.51C255.209 196.145 255.717 196.574 256.781 196.838L258.51 197.238C260.58 197.736 261.361 198.518 261.361 200.031C261.361 201.906 259.613 203.195 257.094 203.195C254.662 203.195 253.051 201.936 252.885 200.051H254.975C255.141 201.037 255.902 201.584 257.191 201.584C258.461 201.584 259.242 201.057 259.242 200.227C259.242 199.572 258.852 199.211 257.777 198.938L255.941 198.488C254.086 198.039 253.148 197.072 253.148 195.637ZM263.617 190.295H265.736V192.727H267.689V194.396H265.736V200.061C265.736 200.949 266.127 201.35 266.986 201.35C267.201 201.35 267.543 201.33 267.68 201.301V202.971C267.445 203.029 266.977 203.068 266.508 203.068C264.428 203.068 263.617 202.277 263.617 200.295V194.396H262.123V192.727H263.617V190.295ZM269.496 203V192.727H271.605V203H269.496ZM270.551 191.223C269.877 191.223 269.33 190.686 269.33 190.021C269.33 189.348 269.877 188.811 270.551 188.811C271.234 188.811 271.781 189.348 271.781 190.021C271.781 190.686 271.234 191.223 270.551 191.223ZM273.764 203V192.727H275.775V194.445H275.824C276.381 193.273 277.475 192.551 279.057 192.551C281.322 192.551 282.621 193.996 282.621 196.35V203H280.502V196.76C280.502 195.217 279.779 194.367 278.314 194.367C276.83 194.367 275.873 195.422 275.873 197.014V203H273.764ZM289.037 201.291C290.688 201.291 291.771 199.953 291.771 197.834C291.771 195.725 290.688 194.338 289.037 194.338C287.416 194.338 286.361 195.695 286.361 197.834C286.361 199.982 287.416 201.291 289.037 201.291ZM289.057 206.867C286.635 206.867 284.838 205.578 284.574 203.801H286.693C286.996 204.66 287.934 205.227 289.135 205.227C290.785 205.227 291.762 204.289 291.762 202.883V201.193H291.723C291.146 202.307 289.936 203.039 288.471 203.039C285.893 203.039 284.203 201.027 284.203 197.824C284.203 194.592 285.883 192.561 288.52 192.561C289.975 192.561 291.166 193.293 291.791 194.484H291.83V192.727H293.881V202.814C293.881 205.266 291.986 206.867 289.057 206.867Z" fill="white"/>
<defs>
<radialGradient id="paint0_radial_2_776" cx="0" cy="0" r="1" gradientUnits="userSpaceOnUse" gradientTransform="translate(224) rotate(90) scale(40.9244 236.594)">
<stop stop-color="white"/>
<stop offset="1" stop-color="white" stop-opacity="0"/>
</radialGradient>
<radialGradient id="paint1_radial_2_776" cx="0" cy="0" r="1" gradientUnits="userSpaceOnUse" gradientTransform="translate(204.5 76) rotate(90) scale(48.5978 261.533)">
<stop stop-color="white"/>
<stop offset="1" stop-color="white" stop-opacity="0"/>
</radialGradient>
<radialGradient id="paint2_radial_2_776" cx="0" cy="0" r="1" gradientUnits="userSpaceOnUse" gradientTransform="translate(224 164) rotate(90) scale(40.9244 236.594)">
<stop stop-color="white"/>
<stop offset="1" stop-color="white" stop-opacity="0"/>
</radialGradient>
</defs>
</svg>
